<svg viewBox="0 0 240.7 240.71" xmlns="http://www.w3.org/2000/svg" data-name="Layer 2" id="Layer_2">
  <defs>
    <style>
      .cls-1 {
        fill: #536574;
      }
    </style>
  </defs>
  <g data-name="Capa 1" id="Capa_1">
    <g>
      <g>
        <path d="M71.72,105.68v-10.15h1.79l7.01,7.93-.22.06c-.05-.3-.09-.61-.12-.92-.03-.31-.06-.62-.08-.96-.03-.33-.05-.66-.06-1-.02-.34-.03-.68-.03-1.03,0-.34,0-.69,0-1.05v-3.05h1.87v10.15h-1.81l-7.05-7.82.29-.1c.03.34.06.65.09.93.03.29.06.56.08.83.02.27.05.53.07.78.02.24.03.49.04.73,0,.24.02.48.02.71v3.93h-1.88Z" class="cls-1"></path>
        <path d="M91.67,105.83c-.82,0-1.58-.14-2.28-.4-.7-.26-1.31-.63-1.83-1.11s-.91-1.03-1.19-1.67c-.28-.63-.42-1.32-.42-2.06s.14-1.44.42-2.07c.28-.63.67-1.19,1.19-1.67.52-.47,1.12-.84,1.83-1.11.69-.26,1.46-.4,2.28-.4s1.61.13,2.3.39c.69.26,1.3.63,1.82,1.11.51.48.91,1.04,1.18,1.67.28.63.42,1.32.42,2.07s-.14,1.43-.42,2.07c-.27.63-.67,1.19-1.18,1.67-.52.48-1.12.85-1.82,1.11-.69.26-1.46.39-2.3.39ZM91.68,104.02c.57,0,1.07-.08,1.53-.26.46-.18.86-.42,1.2-.73.33-.31.6-.68.78-1.09.2-.42.28-.86.28-1.35s-.09-.93-.28-1.35c-.19-.42-.45-.78-.78-1.09-.34-.31-.74-.56-1.21-.73-.46-.17-.97-.26-1.52-.26s-1.05.09-1.52.26c-.47.18-.88.42-1.21.73-.34.31-.61.67-.78,1.09-.19.42-.28.87-.28,1.36s.1.93.28,1.35c.18.42.44.79.78,1.1.33.31.74.55,1.21.72s.98.26,1.52.26Z" class="cls-1"></path>
        <path d="M103.61,105.68v-8.41h-3.48v-1.74h8.92v1.74h-3.55v8.41h-1.88Z" class="cls-1"></path>
        <path d="M121.35,105.83c-.51,0-.97-.07-1.37-.21-.4-.14-.75-.32-1.05-.53-.3-.21-.55-.44-.74-.68-.21-.24-.36-.46-.48-.67l1.18-1.22c.17.24.32.45.49.63.17.19.34.35.53.49.18.14.38.25.61.33s.47.12.74.12c.43,0,.81-.09,1.12-.29s.56-.46.73-.79.25-.7.25-1.11v-4.62h-2.23v-1.76h5.86v1.76h-1.77v4.81c0,.51-.1.99-.27,1.44s-.43.84-.77,1.19c-.33.35-.73.62-1.21.81-.48.2-1.03.29-1.62.29Z" class="cls-1"></path>
        <path d="M135.17,105.77c-.93,0-1.75-.2-2.46-.59-.71-.4-1.28-.93-1.68-1.62-.4-.68-.6-1.46-.6-2.32v-5.73h1.89v5.64c0,.55.13,1.04.38,1.47s.6.77,1.03,1.02c.44.24.92.37,1.44.37.57,0,1.06-.12,1.51-.37.44-.25.79-.59,1.04-1.02.24-.43.37-.92.37-1.47v-5.64h1.83v5.73c0,.86-.2,1.64-.6,2.32-.4.69-.96,1.23-1.67,1.62-.71.39-1.54.59-2.49.59Z" class="cls-1"></path>
        <path d="M148.35,105.83c-.68,0-1.32-.08-1.89-.22-.58-.15-1.09-.37-1.56-.64-.47-.28-.89-.63-1.27-1.06l1.11-1.48c.6.64,1.18,1.1,1.78,1.37.6.27,1.24.4,1.92.4.4,0,.77-.05,1.12-.15s.64-.25.87-.45c.22-.2.34-.44.34-.73,0-.2-.06-.36-.17-.5-.11-.14-.26-.26-.45-.36s-.4-.19-.64-.25-.5-.12-.75-.17c-.26-.05-.53-.09-.79-.13-.61-.1-1.14-.22-1.62-.39-.47-.16-.87-.36-1.2-.62-.33-.25-.58-.55-.75-.88-.17-.34-.25-.73-.25-1.18s.11-.88.32-1.25c.21-.37.52-.69.9-.95.39-.26.84-.46,1.35-.6.5-.14,1.05-.21,1.66-.21s1.21.07,1.73.2c.52.14.98.33,1.37.59.4.26.73.57,1.01.92l-1.18,1.29c-.23-.29-.52-.54-.83-.74-.31-.21-.65-.36-1.01-.46-.36-.1-.73-.15-1.13-.15-.43,0-.8.05-1.13.15-.32.1-.59.23-.78.42s-.29.41-.29.67c0,.21.07.4.2.56s.3.29.53.41.5.21.8.27c.31.07.65.14,1.02.2.57.08,1.09.2,1.58.33.5.14.93.31,1.31.53.37.22.66.49.88.82.21.32.3.73.3,1.21,0,.66-.18,1.24-.55,1.73s-.88.87-1.53,1.13c-.64.26-1.42.4-2.29.4Z" class="cls-1"></path>
        <path d="M159.31,105.68v-8.41h-3.48v-1.74h8.92v1.74h-3.55v8.41h-1.88Z" class="cls-1"></path>
        <path d="M85.74,120.5c-.8,0-1.53-.13-2.21-.37-.67-.25-1.27-.61-1.77-1.07-.51-.47-.9-1.03-1.18-1.67-.27-.64-.42-1.35-.42-2.12s.15-1.44.45-2.07c.29-.63.69-1.19,1.21-1.66.51-.47,1.1-.83,1.78-1.09.68-.25,1.41-.38,2.18-.38.58,0,1.14.07,1.68.22.55.15,1.04.35,1.48.61.44.26.81.54,1.1.85l-1.15,1.45c-.28-.27-.6-.5-.93-.7-.32-.2-.68-.35-1.05-.46-.38-.1-.78-.16-1.22-.16-.47,0-.93.08-1.36.24-.43.16-.81.39-1.14.68-.33.3-.6.65-.8,1.07-.2.42-.29.88-.29,1.41s.1,1.02.29,1.44c.21.42.48.78.84,1.07.35.29.76.52,1.22.67s.95.23,1.46.23c.48,0,.9-.06,1.28-.18.38-.12.72-.28,1.03-.47.3-.2.58-.39.83-.6l.92,1.51c-.26.24-.62.48-1.04.72-.44.23-.93.43-1.47.59-.55.16-1.11.23-1.7.23Z" class="cls-1"></path>
        <path d="M92.79,120.36l4.52-10.15h1.9l4.5,10.15h-1.98l-2.78-6.26c-.08-.16-.16-.34-.24-.55-.08-.21-.17-.43-.25-.66-.08-.22-.17-.45-.24-.66-.08-.22-.15-.42-.21-.59h.44c-.07.19-.14.4-.21.62-.08.21-.17.43-.25.66-.08.22-.17.43-.25.63-.09.21-.18.4-.24.6l-2.77,6.22h-1.91ZM94.82,118.12l.66-1.64h5.42l.47,1.64h-6.55Z" class="cls-1"></path>
        <path d="M109.62,120.36l-4.4-10.15h2.06l2.42,5.76c.08.21.17.43.27.67.11.25.21.5.32.76.12.26.21.52.31.78.1.26.19.51.26.75h-.45c.1-.29.21-.6.33-.94.13-.33.26-.67.4-1.01.14-.35.27-.67.4-1l2.26-5.77h2.09l-4.37,10.15h-1.91Z" class="cls-1"></path>
        <path d="M119.46,120.36v-10.15h1.88v10.15h-1.88Z" class="cls-1"></path>
        <path d="M124.87,120.36l4.53-10.15h1.89l4.51,10.15h-1.98l-2.79-6.26c-.07-.16-.16-.34-.23-.55-.08-.21-.17-.43-.25-.66-.09-.22-.17-.45-.24-.66-.08-.22-.15-.42-.21-.59h.44c-.07.19-.15.4-.22.62-.08.21-.16.43-.24.66-.09.22-.18.43-.26.63-.09.21-.17.4-.24.6l-2.77,6.22h-1.91ZM126.9,118.12l.67-1.64h5.42l.46,1.64h-6.55Z" class="cls-1"></path>
        <path d="M139.26,120.36v-10.15h5.24c.64,0,1.23.14,1.74.42.52.27.93.65,1.23,1.14s.46,1.04.46,1.66-.17,1.15-.48,1.65c-.32.5-.75.89-1.28,1.18-.54.29-1.12.43-1.77.43h-3.31v3.68h-1.84ZM141.09,115.03h3.22c.3,0,.59-.07.84-.21s.45-.33.61-.57c.15-.24.22-.51.22-.81s-.09-.57-.25-.79c-.17-.23-.38-.41-.65-.55-.27-.13-.59-.2-.94-.2h-3.05v3.13ZM146.17,120.36l-3.08-4.58,1.97-.37,3.36,4.96h-2.26Z" class="cls-1"></path>
        <path d="M152.63,123.24l-.68-.78c.43-.23.77-.48,1.04-.74.26-.26.39-.49.39-.68,0-.15-.04-.27-.13-.37-.09-.09-.21-.21-.39-.33-.21-.15-.37-.29-.52-.43-.14-.15-.21-.33-.21-.57,0-.32.12-.57.34-.74.23-.18.53-.26.87-.26.31,0,.61.09.87.26.26.17.48.41.63.7.16.29.24.62.24.98,0,.3-.07.6-.21.9-.14.3-.32.59-.56.85-.24.26-.51.5-.79.72-.29.21-.6.38-.92.49Z" class="cls-1"></path>
        <path d="M66.81,135.03l4.52-10.15h1.9l4.5,10.15h-1.98l-2.78-6.26c-.08-.16-.16-.34-.24-.55-.08-.21-.17-.43-.25-.66-.08-.22-.17-.45-.24-.66-.08-.22-.15-.42-.21-.59h.44c-.07.19-.14.4-.21.62-.08.21-.17.43-.25.66-.08.22-.17.43-.25.63-.09.21-.18.4-.24.6l-2.77,6.22h-1.91ZM68.84,132.8l.66-1.64h5.42l.47,1.64h-6.55Z" class="cls-1"></path>
        <path d="M86.93,135.03v-10.15h1.78l4.22,5.86h-.94s4.23-5.86,4.23-5.86h1.76v10.15h-1.88v-3.9c0-.83.02-1.6.06-2.3.04-.7.12-1.41.23-2.12l.21.67-3.7,4.9h-.96l-3.63-4.9.2-.67c.12.7.2,1.4.23,2.09.04.7.06,1.47.06,2.33v3.9h-1.87Z" class="cls-1"></path>
        <path d="M107.78,135.18c-.82,0-1.57-.14-2.28-.4-.69-.26-1.3-.63-1.82-1.11s-.92-1.03-1.2-1.67c-.27-.63-.42-1.32-.42-2.06s.15-1.44.42-2.07c.28-.63.68-1.19,1.2-1.67.52-.47,1.12-.84,1.82-1.11.7-.26,1.46-.4,2.28-.4s1.61.13,2.3.39c.7.26,1.31.63,1.82,1.11.52.48.91,1.04,1.19,1.67.28.63.42,1.32.42,2.07s-.14,1.43-.42,2.07-.67,1.19-1.19,1.67c-.51.48-1.11.85-1.82,1.11-.69.26-1.46.39-2.3.39ZM107.8,133.37c.56,0,1.06-.08,1.53-.26.46-.18.85-.42,1.19-.73s.61-.68.79-1.09c.19-.42.28-.86.28-1.35s-.1-.93-.28-1.35c-.19-.42-.45-.78-.79-1.09-.34-.31-.74-.56-1.2-.73-.47-.17-.98-.26-1.52-.26s-1.06.09-1.53.26c-.47.18-.87.42-1.21.73-.33.31-.6.67-.78,1.09-.19.42-.27.87-.27,1.36s.09.93.27,1.35.45.79.78,1.1c.34.31.74.55,1.21.72s.98.26,1.53.26Z" class="cls-1"></path>
        <path d="M117.62,135.03v-10.15h4.73c.85,0,1.61.13,2.28.39.67.25,1.23.62,1.7,1.08s.81,1.01,1.05,1.62c.23.62.35,1.28.35,2s-.12,1.39-.35,2.01c-.24.62-.59,1.15-1.05,1.61s-1.03.82-1.7,1.07c-.66.26-1.43.39-2.28.39h-4.73ZM119.5,133.56l-.15-.27h2.92c.59,0,1.1-.09,1.54-.25.44-.17.8-.41,1.09-.7.29-.3.51-.65.64-1.05.14-.4.21-.84.21-1.32s-.08-.91-.21-1.31-.36-.76-.65-1.06-.65-.54-1.09-.71c-.43-.17-.95-.25-1.53-.25h-2.96l.19-.25v7.19Z" class="cls-1"></path>
        <path d="M131.84,135.03v-10.15h7.76v1.71h-5.91v6.73h5.97v1.71h-7.82ZM132.79,130.68v-1.68h6.07v1.68h-6.07Z" class="cls-1"></path>
        <path d="M144.03,135.03v-10.15h5.25c.64,0,1.22.14,1.74.42.51.27.92.65,1.22,1.14s.46,1.04.46,1.66-.16,1.15-.48,1.65-.74.89-1.28,1.18c-.53.29-1.11.43-1.77.43h-3.3v3.68h-1.85ZM145.88,129.71h3.21c.31,0,.6-.07.84-.21.25-.14.46-.33.61-.57.15-.24.22-.51.22-.81s-.08-.57-.24-.79c-.17-.23-.39-.41-.66-.55-.27-.13-.59-.2-.94-.2h-3.04v3.13ZM150.95,135.03l-3.07-4.58,1.97-.37,3.36,4.96h-2.27Z" class="cls-1"></path>
        <path d="M157.23,135.03v-10.15h1.78l7.02,7.93-.23.06c-.05-.3-.09-.61-.12-.92-.03-.31-.05-.62-.08-.96-.02-.33-.04-.66-.06-1l-.03-1.03c0-.34,0-.69,0-1.05v-3.05h1.88v10.15h-1.82l-7.04-7.82.28-.1c.03.34.06.65.09.93.03.29.06.56.09.83.02.27.04.53.06.78.02.24.04.49.05.73,0,.24,0,.48,0,.71v3.93h-1.87Z" class="cls-1"></path>
        <path d="M84.66,149.71v-10.15h5.25c.64,0,1.22.14,1.74.42.51.27.92.65,1.22,1.14s.46,1.04.46,1.66-.16,1.15-.48,1.65-.74.89-1.28,1.18c-.53.29-1.11.43-1.77.43h-3.3v3.68h-1.85ZM86.5,144.38h3.21c.31,0,.6-.07.84-.21.25-.14.46-.33.61-.57.15-.24.22-.51.22-.81s-.08-.57-.24-.79c-.17-.23-.39-.41-.66-.55-.27-.13-.59-.2-.94-.2h-3.04v3.13ZM91.57,149.71l-3.07-4.58,1.97-.37,3.36,4.96h-2.27Z" class="cls-1"></path>
        <path d="M97.9,149.71v-10.15h1.88v10.15h-1.88Z" class="cls-1"></path>
        <path d="M106.93,149.71v-8.41h-3.48v-1.74h8.92v1.74h-3.55v8.41h-1.88Z" class="cls-1"></path>
        <path d="M120.66,149.79c-.93,0-1.75-.2-2.46-.59-.71-.4-1.28-.93-1.68-1.62-.4-.68-.6-1.46-.6-2.32v-5.73h1.89v5.64c0,.55.13,1.04.38,1.47s.6.77,1.03,1.02c.44.24.92.37,1.44.37.57,0,1.06-.12,1.51-.37.44-.25.79-.59,1.04-1.02.24-.43.37-.92.37-1.47v-5.64h1.83v5.73c0,.86-.2,1.64-.6,2.32-.4.69-.96,1.23-1.67,1.62-.71.39-1.54.59-2.49.59Z" class="cls-1"></path>
        <path d="M128.33,149.71l4.53-10.15h1.89l4.51,10.15h-1.98l-2.79-6.26c-.07-.16-.16-.34-.23-.55-.08-.21-.17-.43-.25-.66-.09-.22-.17-.45-.24-.66-.08-.22-.15-.42-.21-.59h.44c-.07.19-.15.4-.22.62-.08.21-.16.43-.24.66-.09.22-.18.43-.26.63-.09.21-.17.4-.24.6l-2.77,6.22h-1.91ZM130.36,147.48l.67-1.64h5.42l.46,1.64h-6.55Z" class="cls-1"></path>
        <path d="M142.76,149.71v-10.15h1.88v8.41h5.81v1.74h-7.7Z" class="cls-1"></path>
        <path d="M155.96,149.87c-.47,0-.81-.11-1.04-.31-.22-.21-.33-.49-.33-.85,0-.31.11-.58.34-.81.23-.23.58-.35,1.04-.35s.79.1,1.02.3c.22.2.34.49.34.85,0,.31-.12.58-.34.81-.23.23-.58.35-1.02.35Z" class="cls-1"></path>
      </g>
      <g>
        <path d="M113.71,76.86h-1.86l-3.93-8.7c-.32-.7-.93-2.2-1.13-2.67.02.61.05,2.46.05,3.25v8.12h-2.23v-16.24h2.27l3.51,7.72c.32.69.93,2.2,1.13,2.67-.02-.6-.04-2.46-.04-3.25v-7.14h2.23v16.24Z" class="cls-1"></path>
        <path d="M126.88,60.62l-4,8.97v7.26h-2.28v-7.19l-4.13-9.05h2.58l1.44,3.38c.35.82,1.11,2.83,1.28,3.39.16-.58.9-2.57,1.25-3.41l1.39-3.36h2.48Z" class="cls-1"></path>
        <path d="M137.56,73.01c-.51,2.43-1.64,4.1-4.32,4.1-3.5,0-4.78-3.73-4.78-8.35s1.42-8.39,4.85-8.39c2.71,0,3.82,1.65,4.22,3.96l-2.29.58c-.3-1.46-.74-2.25-2-2.25-1.96,0-2.43,3.2-2.43,6.05s.62,6.1,2.6,6.1c1.09,0,1.6-.74,2.04-2.48l2.11.67Z" class="cls-1"></path>
      </g>
      <g>
        <path d="M113.73,182.21c0,3.15-1.76,5.08-4.54,5.08s-4.55-1.99-4.55-4.94v-11.55h2.28v11.46c0,1.35.59,2.74,2.28,2.74,1.79,0,2.29-1.46,2.29-2.71v-11.48h2.25v11.41Z" class="cls-1"></path>
        <path d="M125.12,182.84c0,2.6-1.55,4.45-4.43,4.45-2.04,0-3.36-1.06-4.29-2.64l1.79-1.44c.88,1.39,1.64,1.81,2.65,1.81,1.22,0,1.94-.74,1.94-2.07,0-1.25-.54-1.97-2.71-3.41-1.83-1.21-3.27-2.39-3.27-4.94,0-2.37,1.58-4.06,4.11-4.06,1.88,0,2.97.79,3.94,2.2l-1.67,1.48c-.78-1.04-1.32-1.42-2.33-1.42-1.09,0-1.7.7-1.7,1.72,0,1.21.56,1.88,2.36,3.04,2.02,1.3,3.62,2.55,3.62,5.26Z" class="cls-1"></path>
        <path d="M137.5,187.04h-2.48l-.95-4.29h-3.53l-.93,4.29h-2.41l3.98-16.24h2.34l3.96,16.24ZM133.6,180.59l-.61-2.73c-.22-1.06-.58-2.94-.69-3.55-.12.61-.46,2.46-.69,3.55l-.61,2.73h2.6Z" class="cls-1"></path>
      </g>
      <g>
        <path d="M25.2,94.48c2.19.57,3.47,2.73,2.91,4.92-.57,2.19-2.73,3.47-4.92,2.91-2.2-.57-3.53-2.74-2.96-4.94.56-2.19,2.78-3.46,4.97-2.9Z" class="cls-1"></path>
        <path d="M51.71,58.77c1.8,2.27,2.45,4.52.47,6.91-2.61,3.13-6.89,1.5-11.03-1.93-4.21-3.5-6.46-7.5-3.91-10.58,2.01-2.43,4.32-2.2,6.69-.83l-1.19,2.49c-1.53-.82-2.57-1.01-3.5.11-1.46,1.76,1.05,4.56,3.6,6.68,2.68,2.23,5.93,3.97,7.39,2.21.81-.98.53-1.99-.7-3.67l2.17-1.39Z" class="cls-1"></path>
        <path d="M64.99,52.56l-2.14,1.94-4.18-2.95-3.04,2.76,2.56,4.42-2.08,1.89-9.28-17.11,2.02-1.84,16.13,10.89ZM56.58,50.05l-2.67-1.89c-1.04-.74-2.8-2.08-3.38-2.51.38.61,1.53,2.49,2.19,3.6l1.62,2.83,2.24-2.03Z" class="cls-1"></path>
        <path d="M71.89,41.98c1.69,2.51,1.4,5.32-1.39,7.19-1.97,1.33-3.95,1.16-5.87.23l.79-2.55c1.76.77,2.77.68,3.73.03,1.19-.8,1.41-1.99.55-3.27-.82-1.21-1.81-1.56-4.84-1.53-2.56.02-4.73-.18-6.39-2.65-1.54-2.29-1.11-4.96,1.33-6.6,1.82-1.22,3.39-1.17,5.24-.43l-.64,2.52c-1.45-.49-2.2-.51-3.18.16-1.05.71-1.19,1.77-.52,2.76.78,1.17,1.76,1.46,4.26,1.4,2.8-.06,5.17.11,6.93,2.73Z" class="cls-1"></path>
        <path d="M80.37,28.09c1.69,3.44.19,6.26-2.38,7.52l-1.99.97,3.39,6.92-2.37,1.16-8.33-16.98,4.48-2.2c2.4-1.18,5.48-.91,7.21,2.61ZM77.96,29.37c-.94-1.92-2.46-2.13-3.82-1.47l-1.94.95,2.67,5.43,2.01-.99c1.39-.68,1.99-2.09,1.08-3.93Z" class="cls-1"></path>
        <path d="M97.09,36.46l-8.76,2.92-5.99-17.94,8.44-2.81.81,2.43-5.93,1.98,1.6,4.79,3.87-1.29.81,2.41-3.88,1.29,1.96,5.87,6.25-2.08.81,2.44Z" class="cls-1"></path>
        <path d="M110.15,33.85l-2.9.53-4.3-7.58-2.15.4,1.48,8.1-2.6.48-3.42-18.58,5.22-.96c2.71-.5,5.45.51,6.12,4.2.5,2.68-.39,4.41-2.02,5.42l4.55,8ZM104.95,21c-.35-1.91-1.64-2.5-3.2-2.21l-2.41.44,1.01,5.47,2.41-.44c1.67-.31,2.56-1.32,2.2-3.26Z" class="cls-1"></path>
        <path d="M114.75,14.65l-.08,8.88-1.81.12-1.28-8.78,3.16-.21Z" class="cls-1"></path>
        <path d="M129.05,28.75c-.11,3.03-1.99,5.13-5.33,5.01-2.38-.08-3.88-1.38-4.89-3.25l2.13-1.6c.98,1.66,1.85,2.17,3.01,2.21,1.44.05,2.3-.79,2.35-2.33.05-1.46-.55-2.31-3.03-4.08-2.08-1.47-3.71-2.91-3.61-5.88.1-2.75,2-4.66,4.94-4.56,2.19.07,3.43,1.04,4.5,2.72l-2,1.67c-.88-1.25-1.48-1.7-2.67-1.74-1.27-.04-2,.74-2.04,1.93-.05,1.4.58,2.21,2.64,3.63,2.29,1.59,4.11,3.11,4,6.27Z" class="cls-1"></path>
        <path d="M147.27,32.59c-1.21,2.62-2.94,4.21-5.96,3.51-3.96-.92-4.42-5.48-3.21-10.71,1.24-5.33,3.82-9.13,7.7-8.22,3.08.71,3.9,2.87,3.74,5.6l-2.75.05c.04-1.73-.25-2.74-1.67-3.07-2.23-.52-3.59,2.98-4.35,6.21-.79,3.38-.9,7.07,1.34,7.59,1.23.28,2-.42,2.96-2.28l2.21,1.32Z" class="cls-1"></path>
        <path d="M158.83,41.64l-2.7-1.04.77-5.06-3.83-1.48-2.81,4.27-2.62-1.02,11.17-15.94,2.54.99-2.53,19.29ZM157.31,33l.5-3.23c.2-1.25.61-3.44.73-4.15-.37.61-1.53,2.48-2.25,3.56l-1.81,2.72,2.82,1.09Z" class="cls-1"></path>
        <path d="M178.32,30.79l-13.36,14.2-1.73-.94,4.82-18.89,2.53,1.39-2.64,9.35c-.27.96-.98,3.25-1.18,3.91.44-.53,1.98-2.33,2.65-3.1l6.45-7.27,2.46,1.35Z" class="cls-1"></path>
        <path d="M173.69,50.62l-2.17-1.52,10.89-15.49,2.17,1.53-10.89,15.48Z" class="cls-1"></path>
        <path d="M184.88,60l-2.16-1.91,2.48-4.46-3.07-2.71-4.11,3.01-2.09-1.86,15.96-11.03,2.04,1.8-9.05,17.15ZM186.46,51.41l1.58-2.84c.62-1.1,1.77-3,2.13-3.62-.57.43-2.29,1.78-3.33,2.55l-2.64,1.91,2.26,2Z" class="cls-1"></path>
        <path d="M193.28,69.81l-1.89-2.25,4.43-7.49-1.41-1.67-6.28,5.31-1.71-2.02,14.42-12.17,3.42,4.06c1.78,2.1,2.27,4.97-.6,7.39-2.09,1.76-4.02,1.85-5.71.94l-4.68,7.91ZM201.85,58.94c1.48-1.25,1.36-2.66.33-3.88l-1.58-1.88-4.25,3.58,1.58,1.88c1.09,1.3,2.41,1.56,3.92.29Z" class="cls-1"></path>
        <path d="M218.4,102.29c-2.19.57-4.36-.71-4.92-2.91-.56-2.19.72-4.36,2.91-4.92,2.19-.57,4.41.7,4.97,2.89.57,2.19-.76,4.38-2.96,4.94Z" class="cls-1"></path>
      </g>
      <g>
        <path d="M31.38,134.96l-19.06-2.54-.09-2.03,6.55-1.6c1.18-.3,4.56-1.04,5.23-1.16-.68-.05-4.08-.49-5.23-.65l-6.75-1-.1-1.97,18.76-4.23.12,2.65-6.76,1.44c-1.15.24-5.04,1.04-5.71,1.15.68.05,4.65.49,5.77.61l6.88.77.1,2.03-6.79,1.42c-1.12.24-5.01,1.04-5.68,1.15.68.08,4.59.47,5.79.61l6.86.8.12,2.56Z" class="cls-1"></path>
        <path d="M15.53,151.4l-.55-2.59,8.55-1.83-1.11-5.17-8.55,1.83-.55-2.59,18.48-3.95.56,2.59-7.39,1.58,1.1,5.17,7.39-1.58.56,2.58-18.49,3.96Z" class="cls-1"></path>
        <path d="M20.48,165.83l-3.18-8.66,17.73-6.51,3.07,8.33-2.41.89-2.15-5.85-4.74,1.74,1.41,3.82-2.38.87-1.41-3.82-5.8,2.13,2.28,6.18-2.41.88Z" class="cls-1"></path>
        <path d="M27.67,179.87l-1.4-2.59,5.91-6.44-1.04-1.93-7.26,3.91-1.26-2.33,16.66-8.97,2.53,4.69c1.31,2.43,1.19,5.35-2.12,7.13-2.4,1.29-4.33.98-5.79-.26l-6.23,6.79ZM38.32,170.97c1.72-.92,1.88-2.33,1.12-3.73l-1.17-2.17-4.9,2.64,1.17,2.16c.8,1.5,2.04,2.03,3.78,1.09Z" class="cls-1"></path>
        <path d="M36.09,191.76l-5.48-7.46,15.27-11.22,5.26,7.18-2.07,1.52-3.7-5.04-4.08,2.99,2.42,3.3-2.05,1.5-2.42-3.29-4.99,3.67,3.91,5.32-2.07,1.52Z" class="cls-1"></path>
        <path d="M61.1,194.13l-2.54-2.38-11.15,11.89-1.92-1.81,11.15-11.89-2.54-2.38,1.77-1.89,7.01,6.57-1.78,1.89Z" class="cls-1"></path>
        <path d="M61.6,214.77l-2.33-1.69,2.04-4.69-3.32-2.41-3.81,3.4-2.27-1.65,14.85-12.54,2.21,1.6-7.37,17.99ZM62.34,206.04l1.31-2.99c.51-1.16,1.46-3.17,1.77-3.81-.52.49-2.12,2-3.08,2.86l-2.44,2.16,2.44,1.78Z" class="cls-1"></path>
        <path d="M76.41,217.42c-1.42,2.67-4.02,3.72-6.97,2.15-2.1-1.12-2.87-2.93-2.96-5.06l2.62-.5c.15,1.91.7,2.76,1.72,3.3,1.27.67,2.41.3,3.13-1.05.68-1.28.53-2.31-.93-4.98-1.22-2.24-2.05-4.24-.65-6.86,1.29-2.43,3.83-3.31,6.43-1.92,1.92,1.03,2.62,2.43,2.84,4.41l-2.52.61c-.24-1.5-.59-2.17-1.63-2.73-1.12-.6-2.12-.21-2.68.83-.66,1.24-.46,2.24.76,4.41,1.37,2.43,2.32,4.59.84,7.38Z" class="cls-1"></path>
        <path d="M93,211.65l-3.27-1.22-5.71,15.3-2.48-.93,5.71-15.3-3.27-1.22.91-2.43,9.02,3.36-.91,2.43Z" class="cls-1"></path>
        <path d="M100.87,230.38l-8.97-2.09,4.27-18.37,8.64,2.01-.59,2.5-6.06-1.41-1.13,4.91,3.96.92-.57,2.47-3.96-.92-1.4,6.01,6.4,1.49-.58,2.5Z" class="cls-1"></path>
        <path d="M125.07,232.17l-2.6-.04.13-7.62c.03-1.19.1-3.94.14-4.67-.22.75-1.08,3.5-1.54,4.86l-2.56,7.88-2.3-7.96c-.4-1.38-1.17-4.15-1.37-4.91,0,.73,0,3.49-.03,4.67l-.13,7.62-2.49-.04.32-18.91,2.78.04,2.29,7.9c.33,1.14.95,3.48,1.09,4.16.21-.7.89-3.09,1.26-4.19l2.56-7.74,2.76.05-.32,18.91Z" class="cls-1"></path>
        <path d="M140.7,230.4l-9.13,1.25-2.56-18.7,8.78-1.2.35,2.53-6.17.84.68,5,4.03-.55.35,2.51-4.03.55.84,6.11,6.51-.89.34,2.54Z" class="cls-1"></path>
        <path d="M154.23,227.01l-8.93,2.4-4.91-18.26,8.58-2.31.66,2.48-6.03,1.63,1.31,4.88,3.95-1.06.65,2.45-3.94,1.06,1.6,5.98,6.37-1.71.67,2.48Z" class="cls-1"></path>
        <path d="M160.99,206.82l-3.2,1.34,6.26,15.02-2.43,1.02-6.27-15.02-3.2,1.34-1-2.39,8.85-3.69,1,2.39Z" class="cls-1"></path>
        <path d="M177.29,210.66c1.52,2.61,1.04,5.39-1.85,7.08-2.06,1.2-4.01.89-5.87-.15l.96-2.49c1.7.88,2.71.85,3.72.27,1.24-.72,1.52-1.89.75-3.22-.73-1.26-1.69-1.67-4.73-1.85-2.55-.14-4.69-.49-6.18-3.06-1.39-2.38-.79-5.01,1.75-6.49,1.89-1.1,3.46-.95,5.26-.09l-.81,2.48c-1.41-.59-2.16-.65-3.19-.05-1.09.64-1.29,1.69-.69,2.72.7,1.21,1.66,1.56,4.16,1.67,2.79.13,5.14.45,6.72,3.18Z" class="cls-1"></path>
        <path d="M193.51,198.24c1.44,2.52,1.72,4.86-.62,6.91-3.06,2.7-7.05.41-10.61-3.63-3.62-4.12-5.22-8.44-2.22-11.08,2.37-2.09,4.61-1.5,6.75.22l-1.56,2.28c-1.4-1.04-2.38-1.4-3.48-.43-1.73,1.51.33,4.67,2.52,7.17,2.3,2.62,5.24,4.86,6.97,3.34.96-.84.83-1.88-.13-3.75l2.36-1.04Z" class="cls-1"></path>
        <path d="M202.85,186.07c2.8,2.39,3.18,5.41,1.07,7.88-2.03,2.39-5.21,2.53-7.82.3l-10.26-8.74,1.72-2.02,10.18,8.67c1.2,1.02,2.87,1.55,4.15.05,1.36-1.59.44-3.14-.67-4.09l-10.2-8.69,1.7-2,10.14,8.63Z" class="cls-1"></path>
        <path d="M215.26,177.52l-4.67,7.32-15.92-10.15,1.42-2.23,13.74,8.75,3.24-5.09,2.19,1.39Z" class="cls-1"></path>
        <path d="M206.13,159.37l-1.51,3.13,14.65,7.09-1.15,2.38-14.65-7.09-1.52,3.13-2.32-1.13,4.18-8.64,2.33,1.13Z" class="cls-1"></path>
        <path d="M220.61,150.18c3.49,1.14,4.98,3.78,3.97,6.86-.98,2.97-3.86,4.3-7.11,3.24l-12.76-4.18.82-2.51,12.67,4.15c1.48.48,3.23.35,3.85-1.52.64-1.97-.79-3.07-2.17-3.52l-12.7-4.16.82-2.49,12.61,4.13Z" class="cls-1"></path>
        <path d="M229.04,135.28l-.47,2.92-8.59,1.52-.35,2.16,8.14,1.3-.42,2.62-18.69-2.99.85-5.26c.43-2.72,2.29-4.97,6.01-4.38,2.7.43,4.03,1.85,4.44,3.72l9.08-1.62ZM215.17,135.89c-1.92-.31-2.9.71-3.15,2.29l-.39,2.43,5.5.88.39-2.43c.27-1.68-.39-2.85-2.34-3.16Z" class="cls-1"></path>
        <path d="M229.67,120.65l-.21,9.24-18.91-.43.2-8.88,2.57.05-.14,6.24,5.05.11.09-4.08,2.54.06-.09,4.08,6.18.14.15-6.59,2.57.06Z" class="cls-1"></path>
      </g>
      <path d="M120.35,240.71C53.98,240.71,0,186.72,0,120.36S53.98,0,120.35,0s120.35,53.99,120.35,120.36-53.98,120.35-120.35,120.35ZM120.35,2C55.09,2,1.99,55.09,1.99,120.36s53.1,118.35,118.36,118.35,118.36-53.09,118.36-118.35S185.62,2,120.35,2Z" class="cls-1"></path>
    </g>
  </g>
</svg>