<svg viewBox="0 0 240.7 240.71" xmlns="http://www.w3.org/2000/svg" data-name="Layer 2" id="Layer_2">
  <defs>
    <style>
      .cls-1 {
        fill: #536574;
      }
    </style>
  </defs>
  <g data-name="Capa 1" id="Capa_1">
    <g>
      <g>
        <path d="M94.7,113.77v-14.7h2.59l10.16,11.48-.33.09c-.07-.44-.13-.88-.17-1.33s-.08-.91-.12-1.39-.06-.96-.09-1.45c-.02-.49-.03-.99-.04-1.48,0-.5,0-1.01,0-1.52v-4.4h2.71v14.7h-2.62l-10.21-11.32.42-.15c.04.49.08.94.13,1.36.04.41.08.81.11,1.2.04.39.07.77.1,1.12.03.36.05.71.06,1.06.02.35.03.69.03,1.03v5.69h-2.71Z" class="cls-1"></path>
        <path d="M121.07,113.77v-6.9l.29,1.36-7.04-9.15h3.43l5.21,7.01-.97-.02,4.94-6.99h3.19l-6.51,8.95.19-1.33v7.08h-2.72Z" class="cls-1"></path>
        <path d="M141.04,113.99c-1.14,0-2.21-.19-3.18-.54-.99-.36-1.84-.88-2.57-1.55-.72-.68-1.29-1.48-1.7-2.42-.41-.93-.61-1.95-.61-3.08s.21-2.07.63-2.99c.43-.92,1.02-1.72,1.76-2.39.74-.68,1.6-1.21,2.58-1.58.99-.37,2.03-.56,3.15-.56.84,0,1.65.11,2.43.33.79.21,1.5.51,2.15.88s1.17.78,1.59,1.23l-1.66,2.1c-.42-.39-.87-.73-1.34-1.02-.48-.29-.99-.51-1.53-.66s-1.13-.23-1.77-.23c-.68,0-1.34.12-1.96.35-.62.22-1.17.56-1.66.99-.48.42-.87.94-1.15,1.54-.29.6-.43,1.28-.43,2.03,0,.79.14,1.48.43,2.09.28.62.68,1.13,1.2,1.55.52.43,1.11.76,1.78.98.66.22,1.37.34,2.11.34.68,0,1.31-.09,1.85-.26.55-.18,1.04-.4,1.48-.68s.84-.57,1.21-.86l1.32,2.19c-.38.34-.88.69-1.51,1.04-.62.34-1.34.62-2.13.85s-1.61.34-2.47.34Z" class="cls-1"></path>
        <path d="M104.82,146.82c-1.36,0-2.52-.32-3.48-.95-.96-.63-1.69-1.51-2.19-2.65-.49-1.13-.74-2.46-.74-3.97s.25-2.83.74-3.96c.5-1.13,1.23-2.02,2.19-2.65.96-.63,2.12-.95,3.48-.95s2.49.31,3.44.95c.94.62,1.65,1.51,2.14,2.65.48,1.13.72,2.46.72,3.96s-.24,2.84-.72,3.97c-.49,1.13-1.2,2.01-2.14,2.65-.95.62-2.09.95-3.44.95ZM104.82,144.42c1.16,0,2.06-.45,2.71-1.35.64-.91.97-2.18.97-3.82s-.32-2.93-.97-3.84-1.54-1.37-2.71-1.37-2.12.46-2.79,1.37-1.01,2.19-1.01,3.84.33,2.91,1.01,3.82c.67.9,1.6,1.35,2.79,1.35Z" class="cls-1"></path>
        <path d="M116.32,146.61l-.72-1.81,4.65-4.49c.33-.34.68-.68,1.04-1.05.37-.36.7-.73,1.01-1.11.31-.37.56-.74.75-1.1.19-.35.28-.69.28-1.02,0-.39-.09-.72-.25-1.01s-.42-.5-.76-.65c-.35-.15-.76-.22-1.23-.22s-.9.09-1.34.28c-.44.19-.85.47-1.24.86s-.73.87-1.05,1.46l-2.02-1.26c.37-.75.84-1.42,1.44-1.99.59-.58,1.26-1.03,2.02-1.35s1.6-.48,2.51-.48,1.74.18,2.45.53c.7.35,1.25.83,1.64,1.44s.6,1.31.6,2.11c0,.42-.08.83-.21,1.24s-.33.81-.58,1.22c-.24.4-.54.8-.86,1.19-.33.39-.68.79-1.06,1.19s-.77.79-1.17,1.18l-3.61,3.47-.29-1.13h8.31v2.52h-10.28Z" class="cls-1"></path>
        <path d="M136.37,146.75c-1.07,0-2.07-.22-2.99-.66s-1.69-1.03-2.3-1.77l1.47-1.86c.62.63,1.24,1.1,1.87,1.41.63.31,1.27.47,1.91.47s1.19-.11,1.69-.33c.5-.21.89-.53,1.18-.94.28-.42.43-.9.43-1.45,0-.49-.15-.93-.43-1.33-.29-.4-.67-.72-1.15-.96-.47-.23-1.02-.36-1.61-.36-.47,0-.89.05-1.28.13-.4.09-.76.2-1.1.34-.34.14-.67.28-1,.44l-1.31-1.7.86-6.33h8.59v2.42h-7.06l.55-.67-.69,4.66-.71-.55c.2-.17.5-.32.91-.48.4-.16.85-.28,1.33-.38.49-.1.97-.15,1.45-.15.98,0,1.86.21,2.64.62.79.41,1.42.98,1.89,1.71.48.72.71,1.58.71,2.56s-.25,1.84-.77,2.62c-.52.77-1.22,1.4-2.1,1.85-.89.46-1.88.68-2.97.68Z" class="cls-1"></path>
      </g>
      <g>
        <path d="M26.7,89.89c2.09.65,3.21,2.81,2.56,4.9-.65,2.08-2.8,3.21-4.89,2.56s-3.27-2.82-2.62-4.91,2.86-3.2,4.95-2.55Z" class="cls-1"></path>
        <path d="M53.62,56.59c1.66,2.24,2.21,4.42.22,6.65-2.61,2.93-6.67,1.22-10.53-2.22-3.94-3.5-5.97-7.42-3.41-10.28,2.01-2.28,4.22-1.97,6.45-.59l-1.22,2.35c-1.45-.83-2.43-1.05-3.36,0-1.46,1.65.86,4.41,3.24,6.54,2.5,2.22,5.57,4,7.03,2.36.81-.92.57-1.89-.56-3.55l2.13-1.26Z" class="cls-1"></path>
        <path d="M66.5,50.98l-2.1,1.81-3.95-2.95-2.99,2.58,2.34,4.32-2.05,1.77-8.47-16.7,1.99-1.71,15.21,10.89ZM58.5,48.35l-2.52-1.88c-.97-.74-2.64-2.08-3.17-2.5.34.6,1.4,2.42,2,3.52l1.48,2.76,2.21-1.89Z" class="cls-1"></path>
        <path d="M73.57,40.81c1.57,2.45,1.24,5.14-1.47,6.88-1.91,1.23-3.81,1.03-5.63.11l.81-2.43c1.67.77,2.65.7,3.58.1,1.15-.74,1.39-1.88.59-3.12-.76-1.18-1.7-1.53-4.62-1.57-2.45-.02-4.52-.26-6.06-2.67-1.44-2.23-.98-4.78,1.41-6.3,1.77-1.14,3.27-1.05,5.04-.31l-.67,2.4c-1.37-.51-2.1-.53-3.06.09-1.03.66-1.17,1.68-.56,2.64.73,1.13,1.66,1.44,4.06,1.43,2.69,0,4.95.21,6.59,2.76Z" class="cls-1"></path>
        <path d="M81.66,27.72c1.58,3.34.1,6.03-2.4,7.21l-1.92.92,3.17,6.69-2.3,1.09-7.79-16.45,4.35-2.06c2.32-1.1,5.28-.81,6.9,2.6ZM79.32,28.91c-.88-1.86-2.33-2.08-3.65-1.46l-1.88.89,2.5,5.26,1.95-.93c1.34-.63,1.93-1.98,1.08-3.77Z" class="cls-1"></path>
        <path d="M97.85,35.88l-8.46,2.71-5.56-17.3,8.13-2.61.75,2.34-5.7,1.84,1.48,4.62,3.73-1.19.74,2.32-3.73,1.19,1.82,5.66,6.04-1.93.75,2.34Z" class="cls-1"></path>
        <path d="M110.46,33.55l-2.79.48-4.07-7.34-2.07.35,1.35,7.82-2.51.43-3.1-17.94,5.05-.87c2.61-.46,5.23.55,5.85,4.1.45,2.6-.42,4.25-2,5.21l4.3,7.76ZM105.6,21.11c-.32-1.85-1.55-2.42-3.07-2.16l-2.33.4.91,5.28,2.33-.41c1.61-.27,2.48-1.24,2.16-3.12Z" class="cls-1"></path>
        <path d="M115.05,15.04l-.1,8.53-1.74.11-1.2-8.44,3.04-.2Z" class="cls-1"></path>
        <path d="M128.55,28.57c-.09,2.9-1.88,4.92-5.11,4.83-2.28-.07-3.72-1.31-4.71-3.1l2.04-1.55c.94,1.58,1.79,2.08,2.9,2.11,1.38.04,2.2-.76,2.25-2.25.04-1.4-.54-2.22-2.92-3.91-2.01-1.41-3.58-2.77-3.5-5.62.08-2.65,1.89-4.49,4.73-4.4,2.1.06,3.29.98,4.34,2.59l-1.92,1.61c-.84-1.2-1.43-1.63-2.57-1.66-1.22-.04-1.91.72-1.95,1.87-.04,1.35.57,2.12,2.55,3.48,2.22,1.51,3.96,2.97,3.88,6.01Z" class="cls-1"></path>
        <path d="M146.28,32.13c-1.14,2.54-2.79,4.08-5.7,3.44-3.83-.86-4.32-5.24-3.19-10.28,1.15-5.15,3.59-8.83,7.34-7.99,2.96.65,3.78,2.72,3.64,5.35l-2.65.08c.03-1.67-.26-2.64-1.63-2.94-2.16-.48-3.44,2.9-4.13,6.02-.73,3.27-.8,6.82,1.35,7.29,1.19.26,1.93-.42,2.83-2.22l2.14,1.25Z" class="cls-1"></path>
        <path d="M157.78,40.81l-2.62-.99.69-4.89-3.71-1.39-2.67,4.15-2.54-.96,10.61-15.51,2.46.92-2.23,18.66ZM156.22,32.48l.45-3.12c.18-1.22.55-3.33.66-4.01-.36.6-1.46,2.4-2.13,3.47l-1.72,2.64,2.73,1.03Z" class="cls-1"></path>
        <path d="M176.4,30l-12.71,13.93-1.68-.9,4.39-18.32,2.46,1.3-2.41,9.08c-.25.93-.91,3.15-1.09,3.79.42-.52,1.88-2.28,2.52-3.04l6.13-7.11,2.39,1.27Z" class="cls-1"></path>
        <path d="M172.06,49.06l-2.11-1.43,10.15-15.06,2.11,1.43-10.15,15.06Z" class="cls-1"></path>
        <path d="M183.2,57.94l-2.13-1.8,2.29-4.36-3.02-2.55-3.9,3-2.06-1.75,15.16-11,2,1.69-8.35,16.76ZM184.53,49.61l1.46-2.78c.58-1.07,1.64-2.94,1.97-3.54-.54.43-2.18,1.77-3.16,2.53l-2.49,1.9,2.22,1.88Z" class="cls-1"></path>
        <path d="M191.59,67.11l-1.9-2.12,4.07-7.35-1.42-1.57-5.91,5.3-1.7-1.89,13.56-12.18,3.43,3.82c1.77,1.97,2.32,4.74-.37,7.15-1.95,1.76-3.83,1.9-5.48,1.07l-4.29,7.77ZM199.54,56.36c1.4-1.25,1.23-2.61.21-3.75l-1.58-1.76-3.99,3.58,1.58,1.76c1.09,1.22,2.37,1.44,3.79.17Z" class="cls-1"></path>
        <path d="M217.26,97.37c-2.09.65-4.25-.48-4.9-2.57-.64-2.09.48-4.24,2.57-4.89s4.3.46,4.95,2.55-.53,4.26-2.62,4.91Z" class="cls-1"></path>
      </g>
      <g>
        <path d="M31.8,139.55l-18.49-1.46-.2-1.94,6.23-1.88c1.12-.35,4.34-1.25,4.97-1.39-.65-.02-3.96-.26-5.06-.36l-6.56-.61-.19-1.89,17.83-5.06.25,2.55-6.43,1.74c-1.1.29-4.8,1.27-5.44,1.41.65.02,4.5.23,5.58.28l6.67.38.2,1.94-6.46,1.73c-1.07.28-4.78,1.26-5.42,1.41.66.03,4.45.21,5.62.27l6.64.41.24,2.46Z" class="cls-1"></path>
        <path d="M17.35,156.33l-.66-2.47,8.16-2.17-1.32-4.94-8.15,2.18-.66-2.47,17.63-4.7.65,2.47-7.05,1.88,1.32,4.94,7.05-1.88.65,2.47-17.62,4.7Z" class="cls-1"></path>
        <path d="M22.79,170.07l-3.45-8.19,16.77-7.05,3.32,7.88-2.28.96-2.33-5.54-4.47,1.88,1.51,3.61-2.25.95-1.52-3.61-5.49,2.3,2.46,5.85-2.28.96Z" class="cls-1"></path>
        <path d="M30.19,183.13l-1.45-2.45,5.43-6.43-1.07-1.82-6.85,4.05-1.3-2.2,15.7-9.3,2.62,4.42c1.35,2.29,1.36,5.1-1.77,6.94-2.27,1.35-4.12,1.11-5.59-.02l-5.73,6.79ZM40.1,174.14c1.61-.95,1.72-2.31.94-3.64l-1.21-2.04-4.62,2.73,1.21,2.04c.83,1.42,2.04,1.88,3.68.91Z" class="cls-1"></path>
        <path d="M38.77,194.41l-5.53-6.99,14.32-11.33,5.31,6.73-1.93,1.53-3.74-4.72-3.83,3.02,2.45,3.1-1.92,1.51-2.44-3.09-4.69,3.7,3.95,4.99-1.94,1.54Z" class="cls-1"></path>
        <path d="M62.7,195.81l-2.5-2.23-10.41,11.71-1.9-1.69,10.42-11.71-2.5-2.22,1.65-1.87,6.9,6.14-1.66,1.86Z" class="cls-1"></path>
        <path d="M63.84,215.78l-2.29-1.58,1.87-4.56-3.25-2.26-3.59,3.37-2.22-1.54,14.03-12.41,2.16,1.49-6.71,17.49ZM64.37,207.35l1.19-2.9c.47-1.13,1.35-3.09,1.62-3.72-.49.49-1.99,1.97-2.91,2.83l-2.29,2.13,2.39,1.66Z" class="cls-1"></path>
        <path d="M78.07,217.95c-1.32,2.6-3.81,3.66-6.69,2.21-2.04-1.04-2.82-2.77-2.95-4.81l2.52-.54c.18,1.84.72,2.65,1.72,3.15,1.23.62,2.32.24,3-1.08.63-1.25.47-2.24-.99-4.79-1.22-2.13-2.06-4.04-.77-6.59,1.2-2.36,3.63-3.26,6.16-1.98,1.88.96,2.57,2.29,2.83,4.2l-2.42.64c-.26-1.45-.61-2.09-1.63-2.61-1.08-.55-2.04-.16-2.56.86-.62,1.21-.4,2.17.83,4.24,1.36,2.32,2.32,4.38.95,7.1Z" class="cls-1"></path>
        <path d="M93.82,212.24l-3.15-1.14-5.34,14.75-2.39-.87,5.34-14.75-3.14-1.14.85-2.34,8.69,3.15-.85,2.34Z" class="cls-1"></path>
        <path d="M101.78,230.19l-8.66-1.93,3.95-17.72,8.34,1.86-.54,2.4-5.85-1.3-1.06,4.74,3.83.85-.53,2.38-3.83-.85-1.29,5.8,6.18,1.38-.54,2.4Z" class="cls-1"></path>
        <path d="M124.8,231.82l-2.49-.04.13-7.31c.02-1.14.09-3.79.13-4.49-.21.72-1.04,3.36-1.48,4.68l-2.46,7.56-2.21-7.65c-.39-1.33-1.12-3.98-1.32-4.72.02.7,0,3.35-.02,4.49l-.14,7.31-2.38-.05.32-18.15,2.67.05,2.21,7.59c.31,1.09.9,3.34,1.04,3.98.2-.66.86-2.97,1.21-4.02l2.47-7.43,2.65.05-.32,18.15Z" class="cls-1"></path>
        <path d="M139.82,230.2l-8.82,1.15-2.35-18.05,8.49-1.11.32,2.45-5.96.78.62,4.81,3.9-.5.31,2.42-3.9.51.77,5.9,6.29-.81.32,2.44Z" class="cls-1"></path>
        <path d="M153,227.01l-8.61,2.25-4.59-17.63,8.28-2.16.62,2.39-5.81,1.51,1.22,4.71,3.81-.99.62,2.36-3.81,1,1.5,5.76,6.14-1.6.62,2.39Z" class="cls-1"></path>
        <path d="M159.66,207.72l-3.12,1.24,5.81,14.56-2.36.95-5.81-14.57-3.11,1.24-.93-2.31,8.58-3.42.93,2.31Z" class="cls-1"></path>
        <path d="M175.48,211.62c1.42,2.55.91,5.21-1.91,6.79-2,1.11-3.88.79-5.65-.25l.97-2.38c1.62.88,2.61.88,3.58.33,1.2-.67,1.5-1.8.78-3.09-.68-1.23-1.6-1.64-4.52-1.87-2.46-.19-4.51-.56-5.91-3.06-1.29-2.31-.66-4.84,1.81-6.22,1.85-1.03,3.35-.85,5.07,0l-.82,2.36c-1.35-.59-2.07-.66-3.07-.11-1.07.6-1.28,1.61-.72,2.61.65,1.18,1.56,1.54,3.97,1.69,2.69.17,4.94.53,6.43,3.18Z" class="cls-1"></path>
        <path d="M191.2,200.18c1.31,2.46,1.52,4.72-.78,6.63-3.02,2.51-6.79.21-10.1-3.77-3.38-4.06-4.8-8.25-1.85-10.71,2.33-1.94,4.48-1.33,6.48.39l-1.56,2.15c-1.31-1.04-2.26-1.41-3.34-.51-1.7,1.42.21,4.5,2.25,6.96,2.15,2.58,4.91,4.8,6.61,3.39.94-.78.85-1.79-.02-3.59l2.3-.94Z" class="cls-1"></path>
        <path d="M200.51,188.82c2.62,2.38,2.88,5.3.77,7.61-2.03,2.23-5.09,2.26-7.53.03l-9.58-8.74,1.72-1.88,9.5,8.67c1.11,1.02,2.71,1.59,3.98.19,1.36-1.48.53-3.01-.51-3.96l-9.52-8.68,1.71-1.87,9.45,8.63Z" class="cls-1"></path>
        <path d="M212.88,180.86l-4.77,6.88-14.95-10.36,1.45-2.09,12.91,8.94,3.31-4.79,2.05,1.43Z" class="cls-1"></path>
        <path d="M204.67,163.19l-1.6,2.95,13.83,7.47-1.21,2.24-13.83-7.46-1.59,2.95-2.2-1.18,4.4-8.15,2.2,1.19Z" class="cls-1"></path>
        <path d="M219.04,154.9c3.29,1.24,4.61,3.85,3.52,6.76-1.06,2.81-3.89,3.96-6.96,2.8l-12.08-4.56.9-2.37,11.98,4.52c1.41.53,3.09.47,3.76-1.3.7-1.87-.62-2.98-1.93-3.48l-12.01-4.53.89-2.35,11.94,4.51Z" class="cls-1"></path>
        <path d="M227.98,140.81l-.6,2.78-8.36,1.03-.44,2.06,7.77,1.68-.55,2.49-17.83-3.84,1.08-5.02c.56-2.61,2.47-4.67,6.02-3.91,2.57.56,3.78,1.99,4.08,3.81l8.82-1.08ZM214.6,140.67c-1.84-.39-2.84.54-3.16,2.04l-.5,2.31,5.24,1.13.51-2.31c.34-1.61-.23-2.77-2.09-3.17Z" class="cls-1"></path>
        <path d="M229.25,127.08l-.68,8.87-18.15-1.39.65-8.54,2.46.19-.46,6,4.85.37.29-3.92,2.44.19-.29,3.92,5.94.45.48-6.33,2.47.2Z" class="cls-1"></path>
      </g>
      <g>
        <path d="M101.04,174.1l2,.57,1.54,10.61c.14.85.32,2.66.4,3.22.16-.65.71-2.67.96-3.52l2.51-8.76,2.4.69-5.02,17.51-2.46-.7-1.39-9.41c-.14-.85-.32-2.67-.4-3.22-.17.65-.71,2.67-.96,3.52l-2.21,7.71-2.4-.69,5.02-17.51Z" class="cls-1"></path>
        <path d="M85.11,176.02c2.58-4.61,6.06-7.4,9.43-5.53,3.36,1.88,2.78,6.23.21,10.84-2.58,4.62-6.03,7.43-9.38,5.56-3.37-1.88-2.83-6.25-.26-10.87ZM87.41,177.24c-1.65,2.96-2.69,6.38-.75,7.45s4.15-1.62,5.79-4.58c1.65-2.96,2.71-6.36.78-7.43-1.93-1.07-4.18,1.61-5.82,4.56Z" class="cls-1"></path>
        <path d="M71.69,173.33l2.54,2.18,10.23-11.88,1.92,1.66-10.22,11.88,2.54,2.19-1.63,1.89-7-6.04,1.62-1.88Z" class="cls-1"></path>
        <path d="M68.92,152.7c2.91-1.92,5.41-1.78,7.13.83,1.69,2.55.71,4.6-1.39,6.43l-1.77-1.59c1.47-1.45,1.77-2.36,1.05-3.45-.88-1.32-2.1-1.1-3.55-.14l-10.9,7.21-1.41-2.12,10.83-7.17Z" class="cls-1"></path>
        <path d="M63.26,140.1c3.29-1.29,6.03-.22,7.17,2.69,1.09,2.81-.23,5.57-3.32,6.77l-12.08,4.72-.93-2.38,11.98-4.67c1.41-.56,2.63-1.73,1.94-3.5-.73-1.87-2.47-1.81-3.78-1.3l-12.01,4.69-.92-2.35,11.94-4.66Z" class="cls-1"></path>
        <path d="M61.79,127.67c2.87-.45,5.19.96,5.68,4.13.35,2.26-.61,3.9-2.19,5.2l-1.89-1.73c1.39-1.21,1.72-2.13,1.54-3.23-.21-1.36-1.15-2.02-2.62-1.8-1.38.21-2.08.93-3.3,3.58-1.02,2.23-2.08,4.02-4.9,4.45-2.62.41-4.76-1.04-5.19-3.84-.32-2.08.36-3.42,1.76-4.74l1.92,1.59c-1.02,1.04-1.34,1.7-1.16,2.83.19,1.2,1.06,1.75,2.19,1.57,1.34-.21,1.98-.94,2.96-3.13,1.08-2.45,2.2-4.43,5.2-4.89Z" class="cls-1"></path>
        <path d="M51.11,115.79l-.14,3.34,15.66.64-.1,2.55-15.67-.64-.14,3.34-2.49-.1.38-9.24,2.49.11Z" class="cls-1"></path>
        <path d="M67.01,99.53c2.39,1.43,3.75,3.23,2.78,6.05-1.26,3.71-5.68,3.71-10.57,2.04-4.99-1.71-8.39-4.54-7.14-8.17.98-2.87,3.12-3.46,5.72-3.04l-.21,2.65c-1.66-.21-2.65-.03-3.11,1.3-.71,2.08,2.51,3.73,5.53,4.77,3.17,1.08,6.69,1.54,7.4-.55.4-1.15-.21-1.96-1.88-3.06l1.47-1.99Z" class="cls-1"></path>
        <path d="M77.41,90.23l-1.46,2.38-4.68-1.6-2.06,3.39,3.57,3.41-1.41,2.31-13.26-13.34,1.38-2.25,17.91,5.69ZM68.94,90.2l-2.98-1.03c-1.16-.4-3.16-1.17-3.82-1.41.52.46,2.09,1.88,3.01,2.74l2.28,2.18,1.51-2.49Z" class="cls-1"></path>
        <path d="M71.46,69.96l10.15,15.84-1.29,1.4-16.54-8.96,1.89-2.04,8.12,4.67c.83.49,2.81,1.69,3.38,2.03-.39-.54-1.71-2.4-2.28-3.21l-5.28-7.73,1.85-1.98Z" class="cls-1"></path>
        <path d="M88.58,79.66l-2.02,1.55-11.1-14.41,2.01-1.56,11.11,14.42Z" class="cls-1"></path>
        <path d="M100.3,72.76l-2.45,1.31-3.19-3.74-3.48,1.86,1.34,4.73-2.37,1.27-4.61-18.12,2.3-1.23,12.46,13.94ZM93.07,68.44l-2.03-2.38c-.79-.93-2.13-2.6-2.56-3.13.21.65.84,2.67,1.18,3.87l.84,3.02,2.57-1.37Z" class="cls-1"></path>
        <path d="M111.48,69.54l-2.72.77-4.79-6.89-2.03.58,2.14,7.63-2.45.69-4.91-17.52,4.93-1.39c2.55-.71,5.26,0,6.24,3.49.71,2.53,0,4.27-1.46,5.38l5.06,7.27ZM105.38,57.68c-.51-1.81-1.8-2.26-3.27-1.84l-2.28.63,1.45,5.16,2.28-.64c1.57-.44,2.33-1.48,1.83-3.31Z" class="cls-1"></path>
        <path d="M116.77,65.89l-1.11,6.37-1.69.18-.28-6.24,3.09-.3Z" class="cls-1"></path>
        <path d="M134.75,70.59l-2.74-.43-.31-4.9-3.9-.61-1.76,4.58-2.67-.41,7.19-17.26,2.59.4,1.6,18.62ZM131.54,62.8l-.2-3.13c-.08-1.22-.14-3.35-.17-4.04-.23.65-.93,2.65-1.38,3.81l-1.13,2.92,2.87.45Z" class="cls-1"></path>
        <path d="M151.21,78.01l-2.22-1.15,3.4-6.5c.54-1.02,1.79-3.35,2.14-3.96-.53.56-2.44,2.54-3.43,3.53l-5.61,5.66,1.46-7.83c.24-1.37.78-4.08.94-4.82-.3.63-1.5,3-2.04,4.01l-3.4,6.49-2.12-1.11,8.44-16.12,2.37,1.24-1.44,7.79c-.21,1.12-.68,3.39-.85,4.04.48-.52,2.1-2.28,2.89-3.07l5.55-5.55,2.35,1.22-8.44,16.13Z" class="cls-1"></path>
        <path d="M167.06,79.65c-3.5,3.94-7.5,5.89-10.36,3.34-2.87-2.55-1.37-6.66,2.14-10.6,3.5-3.94,7.46-5.93,10.32-3.38,2.87,2.55,1.41,6.7-2.1,10.63ZM165.09,77.96c2.25-2.52,3.99-5.62,2.34-7.08-1.64-1.46-4.38.68-6.63,3.2-2.24,2.51-4,5.6-2.35,7.06,1.64,1.46,4.4-.66,6.64-3.18Z" class="cls-1"></path>
        <path d="M175.68,91.01c-4.4,3.14-8.6,3.77-10.84.62l-2.57-3.6,14.85-10.58,2.57,3.6c2.33,3.29.4,6.82-4.01,9.95ZM174.16,88.87c2.61-1.86,4.93-4.35,3.45-6.43l-1.04-1.46-10.78,7.67,1.09,1.53c1.42,1.99,4.67.54,7.28-1.32Z" class="cls-1"></path>
        <path d="M172.59,106.45l-3.5-8.19,16.77-7.16,3.37,7.88-2.28.97-2.36-5.53-4.48,1.91,1.54,3.61-2.25.96-1.54-3.61-5.49,2.34,2.49,5.84-2.28.98Z" class="cls-1"></path>
        <path d="M175.11,118.19l-.55-2.78,7.24-4.24-.41-2.06-7.76,1.53-.5-2.49,17.84-3.53.99,5.02c.52,2.6-.42,5.24-3.96,5.95-2.58.51-4.25-.33-5.24-1.88l-7.65,4.48ZM187.41,113.03c1.84-.37,2.38-1.61,2.08-3.12l-.46-2.32-5.24,1.04.46,2.31c.31,1.6,1.3,2.44,3.16,2.08Z" class="cls-1"></path>
        <path d="M174.83,130.32l.07-2.07,9.88-4.04c.79-.33,2.5-.95,3.03-1.16-.67,0-2.75-.05-3.63-.08l-9.08-.32.09-2.49,18.16.64-.09,2.54-8.78,3.61c-.79.33-2.5.95-3.03,1.16.67,0,2.75.05,3.63.08l7.99.28-.09,2.49-18.15-.64Z" class="cls-1"></path>
        <path d="M169.85,147.08l.99-2.66,8.4.16.73-1.98-7.45-2.74.88-2.39,17.09,6.3-1.77,4.81c-.92,2.49-3.1,4.27-6.49,3.01-2.46-.91-3.46-2.49-3.51-4.34l-8.87-.17ZM183.07,149.09c1.76.65,2.87-.13,3.41-1.57l.82-2.22-5.03-1.86-.82,2.22c-.57,1.54-.17,2.77,1.62,3.43Z" class="cls-1"></path>
        <path d="M167.23,151.43l1.27-2.22,15.81,9.08-1.27,2.22-15.81-9.08Z" class="cls-1"></path>
        <path d="M172.68,170.43l2.09-2.62-12.27-9.78,1.59-1.98,12.26,9.77,2.09-2.62,1.94,1.55-5.76,7.23-1.94-1.55Z" class="cls-1"></path>
        <path d="M154.82,172.55c-2.24-2.71-2.09-5.62.31-7.61,2.32-1.9,5.33-1.5,7.43,1.04l8.2,9.95-1.95,1.61-8.14-9.87c-.96-1.16-2.44-1.94-3.91-.74-1.53,1.27-.94,2.89-.05,3.96l8.15,9.9-1.93,1.59-8.12-9.83Z" class="cls-1"></path>
        <path d="M140.05,174.41l2.48-1.25,3.12,3.81,3.53-1.79-1.24-4.77,2.41-1.22,4.23,18.26-2.34,1.18-12.19-14.23ZM147.22,178.88l1.98,2.43c.77.96,2.07,2.66,2.5,3.2-.2-.66-.78-2.7-1.1-3.91l-.78-3.04-2.6,1.31Z" class="cls-1"></path>
        <path d="M130.44,176.97l8.06-2.22,4.8,17.52-2.45.67-4.15-15.12-5.61,1.54-.65-2.4Z" class="cls-1"></path>
      </g>
      <path d="M120.35,240.71C53.98,240.71,0,186.72,0,120.36S53.98,0,120.35,0s120.35,53.99,120.35,120.36-53.98,120.36-120.35,120.36ZM120.35,2C55.09,2,1.99,55.09,1.99,120.36s53.1,118.35,118.36,118.35,118.36-53.09,118.36-118.35S185.62,2,120.35,2Z" class="cls-1"></path>
      <rect height="2" width="38.28" y="122.31" x="101.21" class="cls-1"></rect>
    </g>
  </g>
</svg>