<svg viewBox="0 0 208.67 119.29" xmlns="http://www.w3.org/2000/svg" data-name="Layer 2" id="Layer_2">
  <defs>
    <style>
      .cls-1 {
        fill: #202020;
      }
    </style>
  </defs>
  <g data-name="Capa 1" id="Capa_1">
    <g>
      <g>
        <path d="M9.09,60.76h-1.86l-3.92-8.7c-.33-.7-.93-2.2-1.14-2.67.03.61.05,2.46.05,3.25v8.12H0v-16.24h2.28l3.5,7.72c.33.69.93,2.2,1.14,2.67-.03-.6-.05-2.46-.05-3.25v-7.14h2.23v16.24Z" class="cls-1"></path>
        <path d="M22.28,44.53l-4.01,8.97v7.26h-2.28v-7.19l-4.12-9.05h2.57l1.44,3.38c.35.82,1.11,2.83,1.28,3.39.17-.58.91-2.57,1.25-3.41l1.4-3.36h2.48Z" class="cls-1"></path>
        <path d="M32.95,56.91c-.52,2.43-1.65,4.1-4.32,4.1-3.51,0-4.78-3.73-4.78-8.35s1.42-8.39,4.84-8.39c2.71,0,3.83,1.65,4.22,3.96l-2.29.58c-.3-1.46-.74-2.25-1.99-2.25-1.97,0-2.43,3.2-2.43,6.05s.62,6.1,2.6,6.1c1.08,0,1.59-.74,2.04-2.48l2.11.67Z" class="cls-1"></path>
      </g>
      <g>
        <path d="M184.9,55.94c0,3.15-1.77,5.08-4.55,5.08s-4.54-1.99-4.54-4.94v-11.55h2.28v11.46c0,1.35.58,2.74,2.27,2.74,1.79,0,2.3-1.46,2.3-2.71v-11.48h2.25v11.41Z" class="cls-1"></path>
        <path d="M196.28,56.56c0,2.6-1.55,4.45-4.42,4.45-2.04,0-3.37-1.06-4.3-2.64l1.79-1.44c.89,1.39,1.65,1.81,2.65,1.81,1.23,0,1.95-.74,1.95-2.07,0-1.25-.54-1.97-2.71-3.41-1.84-1.21-3.27-2.39-3.27-4.94,0-2.37,1.57-4.06,4.1-4.06,1.88,0,2.97.79,3.95,2.2l-1.67,1.48c-.79-1.04-1.32-1.42-2.34-1.42-1.09,0-1.69.7-1.69,1.72,0,1.21.56,1.88,2.36,3.04,2.02,1.3,3.61,2.55,3.61,5.26Z" class="cls-1"></path>
        <path d="M208.67,60.76h-2.48l-.96-4.29h-3.53l-.93,4.29h-2.41l3.99-16.24h2.34l3.96,16.24ZM204.77,54.31l-.61-2.73c-.23-1.06-.58-2.94-.69-3.55-.12.61-.47,2.46-.7,3.55l-.6,2.73h2.6Z" class="cls-1"></path>
      </g>
      <path d="M53.17,68.83l.56-1.07c-.03-.29-.05-.58-.09-.87-.16-1.41-.35-2.83-.76-3.59-.25-.48-.65-.61-.75-1.34-.07-.6.44-1.23.58-1.68.33-1.04.89-3.72.78-4.74-.1-.94-1.07-2.42-1.02-3.16.04-.67,1.19-1.76,1.54-2.35,1.13-1.92.64-3.37.41-5.33-.18-1.59,1.43-2.01,2.32-3.05,1.5-1.77.84-3.96,1.01-5.88.11-1.14,2.56-2.03,3.44-2.77,1.91-1.6,1.96-4.13,2.5-6.25.34-1.35,3.16-1.81,4.31-2.61,1.02-.71,1.87-2.39,2.46-3.74.14-.3.25-.58.36-.84.27-.63.39-1.89.96-2.26,1.92-.81,4.11-.91,5.81-2.16,1.76-1.3,2.39-2.81,3.53-4.5,1.37-2.02,3.56-.66,5.51-1.06,1.75-.37,3.49-2.28,4.68-3.56.47-.51.76-1.27,1.41-1.59,1.31-.63,3.56.69,5.14.33.95-.21,2.15-.82,3-1.31.95-.55,2.95-2.43,3.72-2.64.63-.17,3.77,1.59,5.3,1.52,2.05-.1,3.3-1.41,4.96-2.13,1.34-.59,1.52.26,2.56.82.49.26,1.66.84,2.15.94,1.61.34,3.42-.77,5.01-.96,1.17.55,1.82,1.77,3.1,2.21,1.49.52,2.62-.1,3.98-.22.97-.1,3.06,1.37,4.1,1.81,2.49,1.06,4.64.94,7.21,1.42,6.64,1.24,11.07,3.37,18.25,1.93,1.29-.26,4.45-1.87,4.02.92-.21,1.38-2.51,2.94-4.31,4.23,0,0-.48.33-1.63,1.04-1.15.71-2.95,1.79-5.6,3.28-2.42,1.53-4.32,2.66-4.91,3.03-2.35,1.51-4.38,2.75-6.15,3.78-.63.37-1.22.71-1.79,1.02-.48.27-.94.52-1.38.75-.18.09-.35.18-.51.27-2.15,1.11-3.75,1.81-4.99,2.27-.72.27-1.63.54-2.65.79-2.03.49-4.45.86-6.5.79-1.14-.04-3.36-.5-3.38-.51-3.04,2.21-5.53,5.07-8.89,6.85-2.54,1.35-7.1,2.99-10,2.71-3.12-.31-.93-2.35-.19-3.72.73-1.34.98-2.63,1.29-4.1-.15-.1-.25-.12-.42-.08-1.25.24-4.35,1.55-5.66,2.12-5.47,2.36-12.91,7.13-17.19,12.04,0,0,0,0-.02.02-.37.34-5.87,5.62-7.19,15.94-.18.84-.23,1.75-.23,2.62h0c0,.31,0,.6,0,.88.05,2.45.42,4.86,1.09,7.18,1.18,3,2.9,5.85,4.89,8.13,1.18,1.35,1.68,2,3.5,2.37,4.17.84,8.92,1.03,13.01,2.63.7.27,1.37.58,2.03.95,5.25,2.94-2.14,3.22-3.65,5.38,0,.28,1.87.99,2.23,1.14,2.83,1.14,4.24,1.82,7.25.84,5.15-1.7,14.43-7.16,19.59-6.58,1.32.15,1.18.99,1.04,2.14-.16,1.32-2.05,4.97-1.84,5.77.06.23.31.34.66.37.47.05,1.1-.04,1.67-.16.03,0,.06-.01.11-.02,0,0,.01,0,.02,0,.36-.07,1-.21,1.85-.42.07-.02.34-.1.79-.24.54-.17,1.33-.42,2.32-.77.7-.24,1.5-.53,2.38-.85.79-.3,1.63-.63,2.54-.99.03-.01.06-.03.09-.04.56-.24,1.12-.48,1.7-.73,1.44-.63,2.9-1.28,4.21-1.87,2.31-1.1,4.74-2.38,7.17-3.83,2.2-1.31,4.39-2.77,6.47-4.36.44-.34.86-.68,1.29-1.01h0c1.02-.81,2-1.57,2.85-2.24.52-.4.99-.77,1.41-1.1,1.12-.87,1.83-1.42,1.83-1.42,1.62-1.18,3.23-2.43,5.03-3.33,1.04-.52,3.05-1.59,2.33.64-1.22,3.79-4.48,10.34-6.68,13.73-1.94,2.99-2.98,4.34-4.74,6.71-.59.8-1.16,1.45-1,2.51.1.7,1.88,2.07,2.48,2.65.86.85,2.67,1.7,1.78,2.55-.23.22-.55.46-.93.7,0,0-1.6,1.08-4.53,2.03-1.13.39-2.19.68-2.89.8-.41.07-.82.13-1.21.17-3.12.5-7.03.6-11.57-.32-.42-.08-.84-.17-1.27-.28-.78-.15-1.54-.34-2.21-.59,0,0-14.54,6.48-30.78,7.72,0,0,.4,1.21.86,2.67.56,1.82,1.2,4.03,1.2,4.76,0,.09,0,.18-.03.25-.23,1.06-2.88.41-3.68.25-4.52-.91-8.49-3.27-11.81-6.4-.86-.81-2.15-2.55-3.02-3.12-1.45-.95-5.11-1.95-6.99-2.88-18.49-9.08-24.77-25.28-27.39-35.07l-.68-.5-.64-.48c-.3-.22-.4-.64-.22-.98l.37-.7ZM55.33,63.75c.79.98,1.56,1.85,1.56,1.86l-.37-2.94c-.16-.77-.31-2.95-.34-3.02-.13.77-.16,1.8-.15,2.58-.16-.36-.32-.72-.46-1.09-.07-.17-.13-.34-.19-.52-.16-.49-.29-1-.36-1.52l-.07.12-1.3,2.14c.16.43.93,1.45,1.69,2.38ZM53.71,52.84c.06.34,1.5,2.27,1.82,2.85.08.15.17.3.24.45.27.49.51.99.68,1.52l.81-7.32c0-.11-.05-.21-.11-.31-.52.98-.79,2.08-.88,3.19-.08-.31-.16-.62-.22-.94-.14-.8-.18-1.63-.09-2.44-.8,1.03-2.42,2.11-2.26,3ZM56.42,48.81v-.02s0,.01,0,.02h0ZM58.94,57.88c.94.7,1.87,1.34,2.82,1.92.05.03.12.03.17,0,.92-.67,1.87-1.27,2.8-1.81.12-.07.12-.24,0-.31-.79-.49-1.48-1.01-2.21-1.57-.33,1-.48,2.02-.69,3.07-.21-1.02-.48-2.06-.57-3.12-.78.45-1.6.93-2.33,1.45-.11.08-.12.29,0,.38ZM71.83,82.45l-1.08-.86c-.21.76-.41,1.53-.59,2.31-.03.12.09.24.21.23.98-.15,1.94-.31,2.89-.49.06-.01.09-.05.1-.1.21-.94.42-1.87.66-2.78.03-.11-.08-.22-.19-.21-.76.13-1.53.24-2.31.35l.69,1.19c.25.38.51.76.76,1.15-.38-.26-.76-.52-1.14-.79ZM70.24,80.3c.05,0,.1-.04.11-.09.27-.93.63-1.89.97-2.8.04-.11-.05-.24-.17-.23-.8.06-1.61.12-2.43.15l1.24,2.53-1.39-1.25-.71-.64c-.28.74-.55,1.5-.8,2.28-.03.12.07.26.19.25.66-.03,1.29-.05,1.93-.1.35-.02.7-.06,1.06-.1ZM67.57,76.67c.06,0,.1-.03.13-.08.08-.2.17-.4.25-.59.33-.73.66-1.45,1.01-2.14.05-.11-.04-.24-.16-.24-.27,0-.54-.02-.82-.03-.54-.03-1.09-.06-1.64-.11l.45,1.37.54,1.33-1.01-1.04-.93-1.11c-.38.73-.75,1.49-1.1,2.26-.05.12.04.27.17.28,1.05.06,2.09.1,3.1.11ZM65.29,72.78c.06,0,.11-.02.14-.07.24-.45.53-.9.81-1.34.29-.44.57-.87.86-1.29.07-.1,0-.25-.12-.27-.83-.12-1.71-.25-2.52-.43.06.49.2.95.31,1.43l.35,1.44-.86-1.2-.43-.61-.22-.31-.19-.32-.37.53-.34.53c-.23.35-.45.72-.67,1.08-.06.11.01.29.14.31.52.11,1.05.2,1.56.29.52.09,1.02.17,1.56.22ZM63,49.46l.1-.8.2-1.61c-.88.22-1.77.47-2.67.74-.14.04-.21.24-.12.36l.52.7.56.69c.37.46.75.89,1.14,1.32.04.05.1.06.16.04.54-.19,1.08-.36,1.61-.52l.8-.23.83-.2c.14-.03.19-.2.1-.3-.58-.69-1.17-1.42-1.73-2.18l-.8,1.38-.4.7-.34.72.03-.81ZM61.96,51.42c-.89.33-1.7.71-2.56,1.11-.13.06-.16.28-.06.38.41.42.83.83,1.25,1.23.41.39.88.78,1.33,1.15.05.04.12.05.17.02.51-.27.99-.52,1.53-.75.52-.23,1.05-.45,1.58-.65.12-.05.16-.22.05-.31-.69-.6-1.4-1.26-2.02-1.93-.25.48-.41.98-.61,1.47-.18.5-.39,1-.56,1.52-.04-.53-.05-1.06-.08-1.61,0-.54-.06-1.09-.02-1.63ZM63.53,68.63c.05.02.11,0,.15-.05.66-.86,1.28-1.66,2.02-2.44.09-.09.05-.25-.07-.29-.82-.23-1.65-.5-2.49-.8l.11,1.49.06.76c.03.25.07.5.11.74-.13-.21-.26-.43-.38-.65l-.34-.68-.68-1.37c-.57.63-1.14,1.29-1.7,1.98-.08.11-.03.3.09.34,1,.38,2.1.68,3.13.94ZM62.32,64.28c.06.02.12.01.16-.03.8-.77,1.6-1.5,2.42-2.16.09-.08.06-.25-.04-.3-.79-.36-1.57-.75-2.37-1.19l-.15,1.53c-.03.51-.02,1.02-.04,1.54-.18-.48-.39-.95-.57-1.44l-.44-1.49c-.69.55-1.37,1.13-2.05,1.75-.11.1-.08.3.04.36,1.02.53,2.04,1.01,3.03,1.43ZM61.62,36.44l-.29.54c.2-1.17.54-2.38,1.15-3.41-1.15.7-2.89,1.41-3.4,2.23-.31.51.22,2.54.21,3.38,0,.52-.14,1.62-.35,2.07,0,0,0,.02,0,.03,0,0,0,0,0,0,.39-.53,4.03-5.49,4.51-6.72.07-.21.11-.38.14-.54-.83.62-1.46,1.52-1.98,2.4ZM62.42,43.33c-.14.02-.23.21-.16.33.57.99,1.22,1.98,1.85,2.91.04.05.1.07.16.06,1.13-.22,2.22-.42,3.34-.56.13-.02.21-.18.13-.29-.5-.77-1-1.56-1.46-2.36-.33.42-.64.85-.95,1.28l-.46.66-.44.67.15-.79.18-.78c.12-.52.23-1.05.38-1.57-.91.12-1.81.26-2.73.43ZM64.44,39.42c.51,1.05,1.01,2.05,1.57,3.05.03.05.08.08.15.08,1.11-.13,2.25-.2,3.36-.25.13,0,.22-.16.16-.29-.42-.8-.83-1.62-1.23-2.47l-1.06,1.19-1.02,1.23.48-1.53.53-1.52c-.9.04-1.82.1-2.75.17-.13.01-.23.19-.18.32ZM69.26,36.64c.22-.48.42-.98.66-1.46-.91-.05-1.81-.05-2.74-.06-.14,0-.25.17-.21.3.39,1.06.84,2.13,1.28,3.15.03.06.08.09.14.09,1.14-.01,2.23-.01,3.35.04.13,0,.23-.14.18-.27-.35-.83-.71-1.7-1.01-2.55-.4.35-.76.73-1.15,1.1-.39.37-.75.75-1.12,1.14.19-.49.39-.99.61-1.47ZM68.71,24.96c-.96.34-2.46,1.07-2.95,1.33-.28.15-.91.67-1.01.98l-.25,5.14c2.14-1.5,3.05-3.67,4.33-5.89l.2-.5c-1.05.71-2,1.59-2.8,2.58.62-1.35,1.45-2.57,2.48-3.63ZM70.05,31.37c-.14-.01-.26.15-.22.28.31,1.09.64,2.16,1.01,3.22.02.06.07.1.13.1,1.1.07,2.22.18,3.31.31.14.01.25-.13.21-.25-.29-.87-.55-1.73-.79-2.61-.84.65-1.63,1.34-2.43,2.04.48-.94.97-1.89,1.51-2.81-.89-.11-1.81-.21-2.72-.28ZM75,29.68l.89-1.32c-.49-.1-.99-.2-1.49-.29-.4-.07-.79-.15-1.2-.21-.13-.02-.27.12-.24.26.08.42.18.84.27,1.26.15.68.31,1.34.48,2.01.02.06.06.1.12.11,1.1.16,2.19.36,3.26.57.13.03.25-.11.22-.23-.21-.87-.4-1.75-.58-2.65l-1.3.9-1.27.95.84-1.35ZM73.39,20.04c.98-1.17,2.13-2.19,3.36-3.09-1.12.29-2.3.48-3.37.84-.33.11-.59.21-.84.45-.33.3-.54,1.09-.72,2-.28,1.41-.5,3.14-1,3.84,1.84-1.47,3.21-2.9,4.65-4.29.44-.42.89-.84,1.35-1.26,0,0,.18-.28.37-.63-1.28.58-2.51,1.27-3.63,2.13-.15.11-.29.23-.44.35.09-.11.17-.22.27-.33ZM76.62,24.63c-.14-.03-.29.1-.27.23.1.87.23,1.74.38,2.6.04.23.08.46.12.69.01.06.05.11.11.12,1.08.25,2.14.51,3.18.81.13.04.26-.08.24-.21-.14-.88-.27-1.77-.38-2.68-.89.53-1.81,1.06-2.69,1.64.33-.47.69-.93,1.05-1.39.29-.38.59-.75.88-1.12-.86-.24-1.73-.47-2.61-.69ZM81.74,23.71c.36-.38.71-.79,1.08-1.17-.85-.32-1.69-.6-2.55-.88-.13-.04-.29.08-.28.21.05,1.1.14,2.22.25,3.3,0,.06.04.11.1.13.03.01.06.02.1.03,1.02.32,2,.64,2.99,1.01.12.05.26-.06.25-.19-.04-.59-.09-1.2-.13-1.8-.02-.3-.03-.59-.05-.88-.48.22-.93.47-1.4.7-.47.23-.93.48-1.39.73.33-.4.69-.8,1.04-1.19ZM82.45,10.89c-1.2.77-3.18,5.47-3.01,5.39,2.88-1.44,4.68-2.61,6.59-4.04l.33-.36c-1.32.09-2.63.47-3.82,1.03,1.19-1.01,2.57-1.8,4.06-2.25-1.39.01-3.38-.25-4.14.23ZM85.75,21.59c-.48.21-.98.4-1.44.63.36-.38.75-.73,1.13-1.09.38-.36.76-.73,1.16-1.07-.82-.38-1.63-.73-2.47-1.07-.12-.05-.28.05-.29.19-.01.55-.03,1.09-.03,1.64s0,1.1.02,1.64c0,.06.03.11.09.13.51.2,1,.4,1.5.61.32.14.65.28.97.42.17.07.35.15.52.23.12.05.27-.04.26-.17v-.05c0-.87,0-1.76.03-2.63-.49.18-.97.38-1.44.59ZM87.87,16.75c-.05.52-.1,1.03-.14,1.54-.04.57-.08,1.14-.1,1.71,0,.06.03.11.08.14.96.46,1.93.96,2.85,1.47.12.06.27-.02.28-.15.05-.89.13-1.76.23-2.64l-.74.22-.74.25c-.5.17-.99.33-1.49.51.4-.34.81-.66,1.21-1l.62-.5.45-.34.18-.13c-.79-.43-1.57-.86-2.38-1.25-.12-.06-.29.04-.3.17ZM93.46,7.27c1.18-.71,2.46-1.21,3.8-1.5-1.15-.14-3.34-.55-3.96-.26-1.25.57-2.61,4.07-4.1,4.77l2-.61c2.32-.99,3.26-1.3,5.78-2.43.38-.23.61-.35.89-.5-1.48-.1-3,.08-4.4.53ZM94.64,15.92c-.74-.49-1.5-.97-2.27-1.42-.11-.07-.29.01-.31.14-.18,1.07-.35,2.1-.48,3.17,0,.01,0,.02,0,.03,0,.06.02.11.07.14.92.52,1.84,1.1,2.72,1.67.11.07.27,0,.28-.13.1-.72.21-1.42.33-2.13.03-.16.06-.32.08-.48-1.01.21-2.01.51-3.02.77.85-.59,1.7-1.22,2.59-1.77ZM98.88,14.31c-.71-.54-1.42-1.08-2.15-1.58-.11-.07-.28,0-.31.12-.27,1.05-.51,2.08-.72,3.13-.01.06.01.12.06.15.48.32.95.66,1.41,1,.4.29.78.57,1.16.86.1.08.27.02.29-.11.06-.32.14-.64.21-.96.12-.53.25-1.06.4-1.59-1.03.14-2.03.36-3.06.55.89-.52,1.78-1.08,2.71-1.57ZM107.71,2.79c-.71-.25-2-.98-2.71-.83-.89.18-2.31,1.71-3.1,2.32-.64.5-1.32.97-2.04,1.36.3.27.92.17,1.3.11,2.03-.34,3.92-.92,5.93-1.19,0,0,.7-.16,1.43-.35-1.54-.28-3.15-.31-4.68-.06,1.56-.61,3.21-.94,4.88-.99-.4-.15-.77-.29-1.02-.38ZM103.21,13.02c-.66-.59-1.33-1.17-2.02-1.73-.11-.08-.28-.03-.33.1-.33,1.03-.66,2.02-.94,3.05-.01.05,0,.11.05.15.77.61,1.54,1.26,2.28,1.91.04.04.09.08.14.12.09.08.25.03.29-.09.01-.03.02-.06.02-.08.23-.81.5-1.6.77-2.4-1.03.06-2.05.21-3.09.33.93-.45,1.86-.94,2.82-1.35ZM106.17,12.61l.72-.29.74-.27-.93-.94-.95-.91c-.1-.09-.27-.05-.32.07-.41.99-.8,1.95-1.16,2.95-.02.05,0,.11.04.15.77.69,1.53,1.45,2.25,2.18.08.09.25.05.3-.06l.47-1.22.5-1.2h-.77s-.77.04-.77.04l-1.55.07,1.44-.57ZM110.03,9.47c-.48.94-.93,1.88-1.35,2.84-.02.05-.01.11.03.15.71.75,1.4,1.54,2.07,2.32.08.1.25.07.3-.04.36-.77.73-1.57,1.12-2.33-.51-.05-1.02-.04-1.53-.06-.51-.01-1.03-.04-1.54-.04.49-.17.99-.31,1.48-.47.5-.15.99-.32,1.49-.45-.56-.68-1.15-1.32-1.74-1.98-.08-.1-.27-.07-.33.04ZM117.58,2.06c-.38-.18-1.69-1.01-1.96-.99-.56.03-3.61,1.92-4.09,2.41h6.56c-1.01-.36-2.04-.68-3.11-.88,1.26-.1,2.53-.06,3.8.05-.4-.2-.78-.39-1.19-.59ZM115.09,11.4l1.52-.34c-.51-.69-1.04-1.39-1.59-2.08-.08-.1-.27-.09-.33.02-.53.89-1.04,1.81-1.53,2.73-.03.05-.02.11.01.15.65.8,1.28,1.6,1.89,2.44.07.1.24.09.3-.02.41-.74.84-1.49,1.27-2.24l-1.52-.16c-.51-.05-1.02-.11-1.53-.14.5-.14,1-.25,1.5-.36ZM126.47,3.51s-.07-.06-.14-.12c-.24-.18-.73-.52-1.18-.81-.45-.29-.86-.54-.94-.55-.78-.13-2.73.98-3.44,1.37l1.32.18,3.55.71c-.7-.49-1.49-.89-2.29-1.19,1.06,0,2.12.13,3.14.44-.01-.02-.02-.03-.03-.03ZM131.97,3.81c-1.05-.13-2.75.57-3.85.82.81.11,1.5.23,1.5.23l5.71.74c-.85-.35-2.54-1.69-3.35-1.79ZM142.53,7.67c-4.02-.65-7.11-.65-10.57.15,0,0,2.31-.31,6.37.18,4.39.53,8.7,1.72,13.05,1.74,0,0-5.32-1.51-8.85-2.08ZM142.49,12.27c2.03.45,1.1-2.07-.2-.73-1.76,1.8,1.96,4.28,3.43,1.87,1.93-3.18-3.55-5.37-4.46-.99.49-2.37,3.98-2.58,4.22-.5.21,1.92-2.78,2.41-2.99.35ZM135.17,24.89s.01-.01.02-.01c.02-.02.04-.04.06-.06.03-.03.05-.06.08-.08.03-.02.04-.04.05-.06h.01s0-.02,0-.02c.51.39,1.43.45,2.16.42.22,0,.42-.02.59-.04.13-.01.24-.03.33-.04.52-.08,1-.2,1.46-.36.58-.2,1.12-.47,1.71-.8.5-.28,1.02-.6,1.6-.97,2.82-1.77,4.73-2.97,8.47-5.35-3.43,1.53-4.22,1.89-6.04,2.59-2.28.83-4.95,2.05-7.43,1.63-.4-.07-.81-.18-1.2-.35.19-.01.38-.02.58-.04,2.46-.22,4.71-.91,7.02-1.83.6-.24,1.25-.5,1.92-.78,1.22-.48,2.84-1.17,4.49-1.9,1.65-.73,3.31-1.49,4.63-2.09.62-.22,1.54-.65,2.54-1.18,1.08-.58,2.26-1.28,3.25-1.96.99-.68,1.8-1.35,2.15-1.86.21-.31.45-.76.23-1.12-.39-.28-3.61,1.79-4.29,2.09-.03.01-.06.03-.09.04,0,0-1.24.64-3.09,1.44-1.86.81-4.32,1.78-6.79,2.45h0s-1.7.58-3.66.79c-.27.03-.54.03-.81.02h-.02.02s0,0,0,0h.01c.14-.07.88-.44,1.14-1.5,0-.02.01-.04.02-.06-1.86,1.61-4.07,1.75-5.05-.8,0,.02.01.03.02.05h0c.03.48.13.86.28,1.17.55,1.14,1.74,1.33,2.22,1.36.13,0,.21,0,.21,0h0c-2.49.25-3.18.6-4.34,1.5-.03-1.2.93-1.8.93-1.8-1.12-.13-2.89,1.72-2.89,1.72h0c-.1-1.64,1.68-2.4,1.68-2.4-1.86.29-3.36,2.22-3.36,2.22-.06-2.09,1.69-2.57,1.69-2.57-5.63.21-6.29,2.03-5.83,3.56.15.49.41.94.67,1.31.25.37.51.65.62.77.04.04.07.06.07.06-.09-.02-.18-.04-.26-.06-.08-.02-.16-.04-.23-.07-.77-.23-1.33-.58-1.74-.99-1.39-1.38-1.03-3.43-1-3.63-.37,1.17-.26,2.39.23,3.48.1.23.22.45.35.66,1.01,1.61,2.91,2.82,5.33,2.91,0,0-.21.17-.62.28-.37.1-.91.16-1.7.08-.03,0-.07,0-.1-.01,0,0-.01,0-.03,0-.04,0-.08-.01-.13-.01h0c-.1-.02-.19-.03-.29-.05-.42-.09-.83-.23-1.21-.42-1.34-.66-2.4-1.89-3-3.27-.06-.15-.12-.29-.17-.44-.44-1.23-.52-2.55-.13-3.68.74-2.38,4.2-3.77,4.42-3.86-3.71.83-6.42,3.37-5.42,7.33,0,.03.02.06.03.09l.07.27c.38,1.3.92,2.31,1.7,3.5h-.2s-.04-.01-.05-.01c-1.19-.08-2.64-.2-3.86-.62-.33-.11-.64-.24-.93-.4-.13-.07-.25-.15-.38-.23-1.02-.7-1.68-1.81-1.95-3.04-.04-.2-.08-.4-.1-.6-.19-1.6.27-3.3,1.46-4.41.7-.65,1.52-1.1,2.42-1.46,2.31-.93,4.31-1.14,6.6-1.27,4.57-.27,8.3-.11,8.44-.12-12-2.77-20.91.23-20.68,6.94.01.28.04.56.08.85.09.66.28,1.36.55,2.09.08.22.17.45.27.67.02.04.04.08.06.13,1.79,3.97,5.22,3.27,8.67,4.03,1.25.27,2.24.96,3.51.95.24.01.47-.01.68-.07.22-.05.42-.14.59-.23.04-.02.09-.05.13-.08.05-.03.08-.05.13-.08.12-.08.23-.16.32-.24.03-.03.06-.06.09-.09ZM103.45,35.25c-.32.67-1.77,2.44-1.51,3.02.08.11.17.23.29.29.25.12,1.46.03,1.82,0,4-.42,8.24-2.43,11.43-4.86,2.12-1.62,5.96-5.85,8.62-6.98,0,0,0,0,0,0,0,0,.01,0,.03-.01.1-.04.19-.08.28-.11,1.05-.39,1-.05,1-.05-.11,0-.29.11-.5.28-.63.52-1.46,1.58-1.14,1.79.79.07,1.32.04,1.76.04.44-.01.86-.07,2.36-.2.27-.02.54-.05.81-.09,2.14-.29,4.25-1,6.2-1.89-.89.02-1.67.29-2.58.24-1.12-.06-2.31-.59-3.52-.75-.93-.12-3.67-.41-4.46-.25-.23.05-.49.13-.74.23-2.69,1.07-6.12,4.87-8.26,6.53-2.26,1.76-4.81,3.17-7.5,4.19-.02.01-.04.02-.05.02-.9.38-1.82.68-2.76.89,0,0,0,0,.01,0,.26-.11,4.55-1.88,9.35-5.5-.22.12-2.21,1.19-4.37,2.18h0c-.1.05-.21.1-.31.14-1.24.56-2.5,1.07-3.5,1.35-.38.11-.73.18-1.02.21,0,0,9.35-5.03,10.56-5.91,0,0-.01,0-.02,0-.48.18-8.19,3.06-9.92,3.55,0,0,.01,0,.02-.01.01,0,.03-.01.04-.02s.03-.01.05-.02c.02-.01.04-.02.06-.03,1.44-.68,10.73-5.08,11.86-5.84-.03.01-.15.05-.35.12-1.4.49-6.72,2.32-9.76,3.28,0,0-.01,0-.02,0-.73.23-1.33.41-1.71.51,0,0,.01,0,.04-.02,0,0,.02-.01.03-.02.64-.37,5.75-3.27,12.21-5.18.22-.07.44-.13.66-.19.3-.08.6-.17.9-.25,0,0-.27-.09-.96-.07h0c-1.41.03-4.61.49-11.01,2.96-.38.14-.76.3-1.16.45,0,0,.03-.03.08-.07.14-.13.49-.41,1.06-.79,0,0,.01,0,.02,0,1.66-1.07,5.24-2.84,11.57-3.58.35-.04.71-.08,1.08-.11-.64-.26-1.32-.41-2.01-.49-1.59-.17-3.26.07-4.79.34-2.96.52-8.4,1.67-8.99,5.1-.34,1.99-.39,3.7-1.3,5.63ZM78.6,44.71c6.35-7.33,15.51-12.43,24.74-15.25,1.47-3.22,5.03-4.65,8.25-5.64.77-.24,1.58-.4,2.39-.54,1.6-.27,3.22-.44,4.69-.84.29-.08,1.01-.25,1.08-.53-.11-.36-.25-.71-.4-1.05-.51-.24-1.02-.69-1.54-.86,0,0,0,0-.01,0-.09-.02-.19-.04-.27-.06-.03,0-.07-.01-.11-.01-.84,0-1.66,1.03-2.51,1.06-.24.01-.49-.06-.74-.17-.62-.26-1.24-.73-1.85-.68-.33.03-.64.22-.95.44-.47.35-.94.78-1.45.85-.31.04-.64-.05-.98-.18-.57-.22-1.15-.53-1.67-.43-.47.08-.87.5-1.28.87-.31.29-.63.56-.99.64-.33.07-.69,0-1.07-.11-.56-.16-1.14-.39-1.63-.26-.61.17-1.05.89-1.56,1.36-.18.16-.36.29-.56.35-.32.11-.69.06-1.07-.01-.58-.11-1.18-.28-1.65-.1-.75.29-1.14,1.43-1.83,1.84-.04.02-.08.05-.12.06-.23.1-.49.12-.76.11-.67-.02-1.42-.22-1.95.04-.76.38-1.02,1.67-1.75,2.08-.74.41-1.98-.03-2.69.42-.72.45-.85,1.77-1.53,2.25-.69.49-1.97.18-2.63.69-.66.52-.66,1.85-1.28,2.4-.64.56-1.95.39-2.54.97-.6.59-.45,1.91-1.01,2.53-.57.63-1.89.6-2.42,1.25-.53.66-.23,1.94-.71,2.63-.49.69-1.8.83-2.25,1.54-.45.72.02,1.95-.38,2.69-.4.74-1.68,1.05-2.03,1.81-.26.57.02,1.38.06,2.07.01.23,0,.45-.08.65-.08.22-.23.41-.41.59-.48.49-1.18.9-1.35,1.49-.16.55.15,1.22.31,1.85.08.3.12.58.06.85-.1.49-.54.91-.91,1.35-.25.31-.48.62-.52.96-.05.43.16.88.39,1.34h0c.21.43.41.86.39,1.27-.04.84-1.08,1.66-1.06,2.5.02.84,1.09,1.61,1.17,2.46.08.83-.81,1.81-.66,2.64.15.83,1.33,1.43,1.54,2.24.22.82-.51,1.92-.23,2.71.28.8,1.54,1.21,1.87,1.97.14.32.13.72.1,1.14-.05.56-.14,1.15.1,1.58.16.3.48.52.82.71.5.29,1.06.53,1.33.95,0,0,0,0,0,0,.13.2.28.4.47.54l.74.52.03.02.03.02s-12.9-16.48,2.81-34.61ZM76.85,83.69c-.74.19-1.5.38-2.25.55.52.72,1.07,1.42,1.61,2.14-.76-.47-1.54-.93-2.29-1.42-.14.75-.25,1.5-.37,2.26-.02.12.11.23.22.2.93-.21,1.85-.43,2.74-.67.05-.01.08-.05.1-.11.13-.94.28-1.86.45-2.77.01-.11-.1-.21-.21-.19ZM80.11,86.59c-.69.24-1.4.47-2.13.7l1.72,1.98-2.31-1.24c-.08.74-.14,1.48-.19,2.24,0,.11.12.21.22.18.89-.27,1.74-.53,2.61-.87.05-.02.08-.06.08-.11.03-.89.12-1.82.21-2.72,0-.11-.1-.2-.21-.17ZM96.63,88.9c.5-.3,1.31-.67.87-1.35-.52-.82-3.88-1.94-5-2.26-.02,0-.05-.01-.07-.02-2.58-.72-5.34-1.19-8.07-1.48-1.16-.12-2.3-.21-3.42-.28.18.27.71.56,1,.68,1.35.57,2.85.51,4.28.76,3.29.57,6.45,1.17,9.53,2.51-3.31-.59-3.75-.77-5.47-1.11-1.25-.25-2.57-.3-3.84-.39l8.27,2.5c-4.84-.62-5.18-.75-7.56-1.17l6.23,2.17c-3.09-.46-3.59-.58-5.24-.84.89.54,2.48,1.09,3.47,1.53-1.14-.13-1.38-.15-2.03-.26,1.23.68,1.9,1.57,3.34.95,1.01-.43,2.78-1.36,3.73-1.93ZM82.24,91.34l-1.16-.53c-.01.73-.01,1.46,0,2.21,0,.11.14.19.24.15.84-.35,1.65-.71,2.46-1.08.05-.02.07-.06.07-.12-.03-.88-.05-1.76-.04-2.62,0-.11-.13-.18-.22-.14-.65.29-1.31.56-1.98.83l.89.91.96.85-1.2-.46ZM85,93.27c.06.7.13,1.4.21,2.1.01.11.15.18.24.13.77-.4,1.53-.81,2.26-1.23.04-.02.06-.07.06-.12-.11-.86-.19-1.72-.25-2.56-.01-.1-.14-.17-.22-.12-.61.35-1.23.69-1.87,1.02l1.96,1.53-2.38-.75ZM90.32,95.62l-1.18-.3c.12.68.24,1.36.38,2.05.02.1.16.15.24.1.71-.47,1.41-.94,2.09-1.42.03-.03.05-.07.04-.12-.19-.81-.35-1.62-.5-2.42-.01-.1-.14-.14-.22-.09-.55.38-1.12.75-1.7,1.12l1,.68,1.03.62-1.2-.23ZM95.48,95.05c-.03-.1-.15-.14-.22-.07-.5.42-1.01.84-1.54,1.25l1.04.55c.35.19.69.37,1.05.53-.39-.03-.78-.08-1.17-.14l-1.18-.17c.18.64.37,1.28.57,1.93.03.1.16.14.24.08.64-.49,1.27-1.02,1.88-1.55.03-.03.04-.07.03-.12-.25-.76-.49-1.51-.69-2.29ZM99.67,96.18c-.03-.09-.16-.12-.22-.05-.44.46-.9.91-1.37,1.36.71.28,1.41.58,2.12.83-.76,0-1.52-.05-2.29-.08.23.6.48,1.2.73,1.81.03.09.17.12.24.05.56-.53,1.12-1.1,1.66-1.67.02-.03.04-.07.02-.11-.32-.71-.61-1.41-.88-2.14ZM103.58,98.99l-1.12.04c.28.56.57,1.12.88,1.69.04.08.17.1.23.02.5-.59.97-1.18,1.42-1.77.03-.03.03-.07,0-.11-.37-.66-.72-1.31-1.06-1.97-.04-.08-.16-.09-.22-.02-.38.48-.77.95-1.18,1.42l1.06.32,1.07.28-1.11.09ZM122.91,90.18c.28-1.01.69-2.37-.82-2.36-1.48.02-3.28.5-4.7.92-4.93,1.47-9.48,4.03-14.21,6-.05.21.16.15.31.19.36.11.91.28,1.28.21,5.2-2.26,10.3-4.98,15.96-5.9l-5.7,2.61-4.69,2.22,6.92-2.14,3.66-1.08-8.69,3.77,8.21-1.88-2.96,1.23s-3.2,1.4-3.34,1.51c1.78-.29,3.85-.69,5.83-.99l-2.8,1.4c.76,0,3.04.1,3.52-.47.4-.48,2.01-4.48,2.22-5.25ZM107.08,99.36c.33.5.68,1.02,1.04,1.52.05.07.19.07.24,0,.41-.61.8-1.24,1.16-1.87.02-.03.01-.07,0-.11-.45-.57-.86-1.16-1.25-1.75-.04-.07-.16-.07-.2,0-.31.51-.63,1-.96,1.5.7.13,1.4.24,2.11.32-.7.16-1.41.28-2.13.39ZM165.5,73.96c-.54.2-1.15.56-1.61.93-1.85,1.46-3.45,2.73-4.92,3.86-.57.45-1.13.87-1.68,1.28-4.07,3.06-7.36,5.21-12.61,8.08-.69.38-1.4.77-2.17,1.17-.15.08-.4.35.02.32.58-.22,1.17-.46,1.75-.71,4.14-1.79,8.4-4.42,12.08-7.09.75-.54,1.47-1.09,2.17-1.63,3.04-2.36,5.52-4.63,6.96-6.22ZM144.37,99.75l1.56.23c2.88.3,6.95-.24,9-1.27-2.89.52-5.92.08-8.88.07-1.55,0-3.08.11-4.56.53l2.88.43ZM140.14,100.6c1.1.29,2.17.55,3.22.75,3.67.71,7.13.76,11.23-.64-1.91.32-6.67.45-10.99.19-1.21-.07-2.39-.17-3.46-.31ZM146.9,98.13c2.27.09,4.16-.3,6.9-1.19,0,0-3.68-.07-4.91,0-.35.02-.86.07-1.43.13-1.92.2-4.61.53-4.61.53,1.58.31,2.88.49,4.06.53ZM154,94.24s-2.99.87-3.96,1.02c-.57.09-1.17.17-1.76.25-2.07.29-3.96.5-3.96.5,1.28.18,2.23.29,3.44.27.55-.01,1.17-.05,1.89-.13,1.46-.15,3.39-.76,4.34-1.92ZM163.83,77.14c-2.53,2.09-4.16,3.42-5.75,4.6-.59.44-1.17.86-1.78,1.29-1.06.74-2.23,1.52-3.72,2.49.16-.05.32-.11.48-.17,1.06-.37,2.08-.83,3.08-1.37,3.1-1.68,5.83-4.11,7.7-6.85ZM161.7,81.04s-4.51,3.17-6.06,4.11c-.23.14-.54.32-.89.53-1.93,1.14-5.18,3-5.18,3,1.79-.53,3.19-.98,4.43-1.52,2.6-1.14,4.46-2.67,7.69-6.11ZM159.88,84.65c-2.14,1.37-4.08,2.49-6.03,3.44-2.3,1.14-4.6,2.04-7.23,2.86,2.18.06,4.48-.5,6.55-1.37,2.47-1.03,4.63-2.48,5.88-3.79.12-.12.92-1.05.82-1.15ZM158.06,87.98c-.13.07-2.95,1.69-6.49,3.05-1.8.7-3.8,1.33-5.72,1.66.92.1,2.92.17,5.16-.35,2.39-.56,5.08-1.78,7.05-4.36ZM155.67,91.53c-.7.25-1.37.48-1.99.69-.96.35-1.93.67-2.91.95-1.18.34-2.37.62-3.58.84-.86.17-1.46.26-1.81.3-.27.03-.4.04-.4.04.15.02.3.04.45.06.17.02.33.04.49.05,1.5.15,2.82.1,3.97-.08,4.27-.64,6.18-3,6.18-3-.14.05-.27.1-.4.15ZM140.52,103.17c3.84.78,10.72,1.54,15.52-1.52-3.64,1.28-7.08,1.47-10.86.84-.64-.11-1.5-.23-2.44-.32-1.71-.16-3.7-.18-5.1.28,0,0,1.12.36,2.9.72ZM88.18,107.38c4.48,5.72,10.27,10.7,17.89,11.08-3.09-1.09-3.7-1.36-5.32-1.98-3.8-1.45-7.01-3.99-9.54-7.15l-.33-.46c3.4,3.3,8.16,5.6,12.83,6.34-1.69-.86-7.14-2.46-9.9-4.66-1.15-.7.35.05.48.11,2.75,1.23,5.2,2.56,8.31,2.9.18.02,1.33.02.79-.11-.78-.23-1.56-.47-2.34-.72-.52-.17-1.04-.34-1.56-.52-.96-.33-1.9-.7-2.83-1.1-1.33-.58-2.61-1.24-3.84-2.04l5.12,1.87c1.56.44,3.11.81,4.71.99.16.02,1.25.05.47-.09-6.99-1.86-10.13-3.85-10.13-3.85,5.69,2.23,11.83,2.63,9.73,2.24-3.21-.81-6.46-1.58-9.48-2.99l-1.82-1.04c3.38.89,6.76,1.95,10.26,2.38,4.62.57,8.69.15,13.21-.81,7.78-1.65,22.59-6.15,27.38-12.76,2.23-3.08.86-3.62-.72-2.82h0c-.48.24-1.09.64-1.87,1.26-.1.08-.2.16-.31.24-.28.22-.59.4-.93.5-.59.17-1.24.27-1.74.59-.46.3-.79.79-1.16,1.23-.08.1-.16.2-.25.3-.17.18-.36.35-.57.47-.79.45-1.91.27-2.73.68-.79.39-1.33,1.35-2.13,1.72-.02.01-.05.02-.07.03-.4.17-.86.19-1.33.2-.5.01-1.01,0-1.46.17-.53.19-.98.62-1.45.99-.29.22-.59.42-.92.52-.21.06-.42.09-.65.09-.71.01-1.48-.19-2.16-.02-.32.08-.62.24-.92.43-.46.29-.91.62-1.4.77-.06.02-.13.04-.2.05-.89.18-1.9-.34-2.8-.21-.25.03-.49.12-.72.22-.33.15-.66.34-.99.5-.3.14-.6.25-.91.28-.31.03-.63-.02-.95-.11,0,0,0,0-.04-.03-.2-.16-.47-.24-.73-.24h-.22c-.28-.07-.56-.12-.83-.1-.17,0-.34.04-.5.08,0,0-.01,0-.01,0-.24.06-.49.16-.73.26-.48.19-.97.4-1.46.4-.07,0-.15,0-.22-.01-.83-.1-1.65-.69-2.49-.72-.2,0-.41.02-.62.06-.57.12-1.17.37-1.74.43-.14.02-.28.02-.41,0-.9-.08-1.73-.86-2.63-.98-.25-.03-.5-.02-.76.02-.51.07-1.04.23-1.54.25-.17.01-.33,0-.49-.03-.91-.16-1.66-1.01-2.54-1.21-.17-.04-.34-.05-.52-.05-.5,0-1.01.1-1.51.12-.27.02-.53,0-.78-.06-.88-.24-1.56-1.15-2.42-1.43-.18-.06-.38-.09-.58-.11-.48-.04-.99.02-1.46,0-.27-.01-.53-.05-.76-.14-.86-.32-1.45-1.29-2.28-1.64-.1-.04-.2-.07-.31-.1-.59-.16-1.25-.12-1.86-.22-.21-.04-.41-.1-.6-.19-.82-.4-1.32-1.42-2.11-1.85-.09-.05-.19-.1-.29-.13-.35-.13-.75-.19-1.14-.25-.46-.08-.9-.17-1.27-.39-.65-.39-1.03-1.2-1.57-1.75-.11-.11-.23-.21-.35-.3-.42-.28-.94-.4-1.46-.54-.42-.12-.83-.25-1.16-.5-.6-.46-.9-1.29-1.38-1.89-.1-.13-.21-.24-.33-.34-.21-.18-.46-.31-.73-.43-.61-.27-1.3-.45-1.76-.88-.67-.63-.83-1.75-1.45-2.41-.63-.67-1.74-.89-2.33-1.58-.49-.58-.59-1.46-.92-2.16-.07-.14-.15-.28-.24-.4-.12-.17-.28-.32-.45-.46-.56-.46-1.28-.81-1.67-1.39-.29-.45-.38-1.02-.48-1.58-.08-.39-.16-.78-.35-1.11-.24-.43-.66-.78-1.05-1.14-.21-.19-.4-.38-.57-.58,2.34,12.36,13.37,25.65,29.38,32ZM57.27,45.64c0-1.06.18-2.13.52-3.15-1.08.8-2.39,1.48-2.19,2.52.25,1.24.66,2.11,1.06,3.84.03-.06.07-.12.11-.19.25-.38.68-.85.87-1.27.07-.15.14-.33.21-.53.36-1.07.67-2.71.85-3.93-.63.81-1.1,1.73-1.44,2.71ZM54,69.81l1.79,1.02,2.17,1.24s-.05-.11-.12-.31h0c-.28-.74-.97-2.63-1.28-4.23-.01.03-.02.06-.02.1-.1.46-.14.94-.09,1.42.02.27.06.53.14.79-.03-.04-.06-.08-.08-.12-.5-.72-.79-1.56-.88-2.43l-1.07,1.27-.63.75c-.14.16-.1.41.08.51Z" class="cls-1"></path>
    </g>
  </g>
</svg>